<?xml version="1.0" encoding="UTF-8" standalone="no"?>
<!--Generator: Apple Native CoreSVG 341-->

<svg
   version="1.1"
   viewBox="0 0 99.621101 85.412102"
   id="svg45"
   sodipodi:docname="custom.person.crop.circle.fill.badge.plus.svg"
   inkscape:version="1.4.3 (0d15f750, 2025-12-25)"
   width="99.621101"
   height="85.412102"
   xmlns:inkscape="http://www.inkscape.org/namespaces/inkscape"
   xmlns:sodipodi="http://sodipodi.sourceforge.net/DTD/sodipodi-0.dtd"
   xmlns="http://www.w3.org/2000/svg"
   xmlns:svg="http://www.w3.org/2000/svg">
  <defs
     id="defs45" />
  <sodipodi:namedview
     id="namedview45"
     pagecolor="#ffffff"
     bordercolor="#000000"
     borderopacity="0.25"
     inkscape:showpageshadow="2"
     inkscape:pageopacity="0.0"
     inkscape:pagecheckerboard="0"
     inkscape:deskcolor="#d1d1d1"
     inkscape:zoom="0.26666667"
     inkscape:cx="251.25"
     inkscape:cy="478.125"
     inkscape:window-width="1024"
     inkscape:window-height="1186"
     inkscape:window-x="0"
     inkscape:window-y="30"
     inkscape:window-maximized="0"
     inkscape:current-layer="Symbols" />
  <!--glyph: "", point size: 100.0, font version: "20.0d8e1", template writer version: "138.0.0"-->
  <style
     id="style1">.monochrome-0 {-sfsymbols-motion-group:1;-sfsymbols-layer-tags:13b9d7c1a205ae22 person.crop.circle.fill person.crop.circle.fill.badge.plus}
.monochrome-1 {opacity:0.0;-sfsymbols-clear-behind:true;-sfsymbols-motion-group:1;-sfsymbols-layer-tags:13b9d7c1a205ae22 person.crop.circle.fill person.crop.circle.fill.badge.plus}
.monochrome-2 {opacity:0.0;-sfsymbols-clear-behind:true;-sfsymbols-motion-group:0;-sfsymbols-layer-tags:13b9d7c1a205ae22 _badge person.crop.circle.fill.badge.plus plus}
.monochrome-3 {-sfsymbols-motion-group:0;-sfsymbols-always-pulses:true;-sfsymbols-layer-tags:13b9d7c1a205ae22 _badge person.crop.circle.fill.badge.plus plus}
.monochrome-4 {opacity:0.0;-sfsymbols-clear-behind:true;-sfsymbols-motion-group:0;-sfsymbols-always-pulses:true;-sfsymbols-layer-tags:13b9d7c1a205ae22 _badge person.crop.circle.fill.badge.plus plus}

.multicolor-0:tintColor {-sfsymbols-motion-group:1;-sfsymbols-layer-tags:13b9d7c1a205ae22 person.crop.circle.fill person.crop.circle.fill.badge.plus}
.multicolor-1:tintColor {opacity:0.0;-sfsymbols-clear-behind:true;-sfsymbols-motion-group:1;-sfsymbols-layer-tags:13b9d7c1a205ae22 person.crop.circle.fill person.crop.circle.fill.badge.plus}
.multicolor-2:tintColor {opacity:0.0;-sfsymbols-clear-behind:true;-sfsymbols-motion-group:0;-sfsymbols-layer-tags:13b9d7c1a205ae22 _badge person.crop.circle.fill.badge.plus plus}
.multicolor-3:systemGreenColor {-sfsymbols-motion-group:0;-sfsymbols-always-pulses:true;-sfsymbols-layer-tags:13b9d7c1a205ae22 _badge person.crop.circle.fill.badge.plus plus}
.multicolor-4:white {-sfsymbols-motion-group:0;-sfsymbols-always-pulses:true;-sfsymbols-layer-tags:13b9d7c1a205ae22 _badge person.crop.circle.fill.badge.plus plus}

.hierarchical-0:secondary {-sfsymbols-motion-group:1;-sfsymbols-layer-tags:13b9d7c1a205ae22 person.crop.circle.fill person.crop.circle.fill.badge.plus}
.hierarchical-1:primary {opacity:0.0;-sfsymbols-clear-behind:true;-sfsymbols-motion-group:1;-sfsymbols-layer-tags:13b9d7c1a205ae22 person.crop.circle.fill person.crop.circle.fill.badge.plus}
.hierarchical-2:primary {opacity:0.0;-sfsymbols-clear-behind:true;-sfsymbols-motion-group:0;-sfsymbols-layer-tags:13b9d7c1a205ae22 _badge person.crop.circle.fill.badge.plus plus}
.hierarchical-3:primary {-sfsymbols-motion-group:0;-sfsymbols-layer-tags:13b9d7c1a205ae22 _badge person.crop.circle.fill.badge.plus plus}
.hierarchical-4:primary {opacity:0.0;-sfsymbols-clear-behind:true;-sfsymbols-motion-group:0;-sfsymbols-layer-tags:13b9d7c1a205ae22 _badge person.crop.circle.fill.badge.plus plus}

.SFSymbolsPreviewWireframe {fill:none;opacity:1.0;stroke:black;stroke-width:0.5}
</style>
  <g
     id="Symbols"
     transform="translate(-1389.9023,-621.0918)">
    <g
       id="Regular-S"
       transform="translate(1403.58,696)">
      <path
         class="monochrome-0 multicolor-0:tintColor hierarchical-0:secondary SFSymbolsPreviewWireframe"
         d="m 46.2402,4.15039 c 21.7774,0 39.4532,-17.67579 39.4532,-39.40429 0,-21.7285 -17.6758,-39.4043 -39.4532,-39.4043 -21.7285,0 -39.40426,17.6758 -39.40426,39.4043 0,21.7285 17.67576,39.40429 39.40426,39.40429 z"
         id="path36" />
      <path
         class="monochrome-1 multicolor-1:tintColor hierarchical-1:primary SFSymbolsPreviewWireframe"
         d="m 46.2402,-2.44141 c -8.3496,0 -17.1386,-3.36914 -23.0957,-9.61909 4.1016,-6.3965 12.8418,-10.0586 23.0957,-10.0586 10.1075,0 18.9453,3.6132 23.0957,10.0586 -5.957,6.24995 -14.7461,9.61909 -23.0957,9.61909 z m 0,-26.12309 c -7.373,-0.0976 -13.1836,-6.2011 -13.1836,-14.4531 -0.0488,-7.7636 5.8106,-14.1601 13.1836,-14.1601 7.3731,0 13.1836,6.3965 13.1836,14.1601 0,8.252 -5.8105,14.5508 -13.1836,14.4531 z"
         id="path37" />
      <path
         class="monochrome-2 multicolor-2:tintColor hierarchical-2:primary SFSymbolsPreviewWireframe"
         d="m 11.9629,10.2539 c 13.8183,0 25.3906,-11.57226 25.3906,-25.4394 0,-13.9161 -11.4746,-25.3907 -25.3906,-25.3907 -13.96485,0 -25.3906,11.4746 -25.3906,25.3907 0,14.01362 11.42575,25.4394 25.3906,25.4394 z"
         id="path38" />
      <path
         class="monochrome-3 multicolor-3:systemGreenColor hierarchical-3:primary SFSymbolsPreviewWireframe"
         d="m 11.9629,4.54102 c 10.6445,0 19.6777,-8.93555 19.6777,-19.72652 0,-10.7911 -8.8867,-19.6778 -19.6777,-19.6778 -10.79102,0 -19.72657,8.8867 -19.72657,19.6778 0,10.88862 8.93555,19.72652 19.72657,19.72652 z"
         id="path39" />
      <path
         class="monochrome-4 multicolor-4:white hierarchical-4:primary SFSymbolsPreviewWireframe"
         d="m 11.9629,-2.92969 c -1.5625,0 -2.53907,-1.02539 -2.53907,-2.53906 V -12.6465 H 2.24609 c -1.513668,0 -2.539059,-0.9765 -2.539059,-2.539 0,-1.5137 1.025391,-2.4903 2.539059,-2.4903 h 7.17774 v -7.1777 c 0,-1.5137 0.97657,-2.5391 2.53907,-2.5391 1.5137,0 2.5391,1.0254 2.5391,2.5391 v 7.1777 h 7.1777 c 1.5137,0 2.4902,0.9766 2.4902,2.4903 0,1.5625 -0.9765,2.539 -2.4902,2.539 H 14.502 v 7.17775 c 0,1.51367 -1.0254,2.53906 -2.5391,2.53906 z"
         id="path40" />
    </g>
  </g>
</svg>
