<?xml version="1.0" encoding="UTF-8" standalone="no"?>
<!--Generator: Apple Native CoreSVG 232.5-->

<svg
   version="1.1"
   width="24.1846"
   height="23.8379"
   id="svg2"
   sodipodi:docname="check.svg"
   inkscape:version="1.4.3 (0d15f750, 2025-12-25)"
   xmlns:inkscape="http://www.inkscape.org/namespaces/inkscape"
   xmlns:sodipodi="http://sodipodi.sourceforge.net/DTD/sodipodi-0.dtd"
   xmlns="http://www.w3.org/2000/svg"
   xmlns:svg="http://www.w3.org/2000/svg">
  <defs
     id="defs2" />
  <sodipodi:namedview
     id="namedview2"
     pagecolor="#ffffff"
     bordercolor="#000000"
     borderopacity="0.25"
     inkscape:showpageshadow="2"
     inkscape:pageopacity="0.0"
     inkscape:pagecheckerboard="0"
     inkscape:deskcolor="#d1d1d1"
     inkscape:zoom="36.38679"
     inkscape:cx="12.161007"
     inkscape:cy="11.913664"
     inkscape:window-width="1171"
     inkscape:window-height="1186"
     inkscape:window-x="501"
     inkscape:window-y="44"
     inkscape:window-maximized="0"
     inkscape:current-layer="svg2" />
  <g
     id="g2">
    <rect
       height="23.8379"
       opacity="0"
       width="24.1846"
       x="0"
       y="0"
       id="rect1" />
    <path
       d="M4.29199 23.8379L19.5264 23.8379C22.3145 23.8379 23.8232 22.3389 23.8232 19.5752L23.8232 4.28223C23.8232 1.51855 22.3145 0.0244141 19.5264 0.0244141L4.29199 0.0244141C1.50879 0.0244141 0 1.51367 0 4.28223L0 19.5752C0 22.3438 1.50879 23.8379 4.29199 23.8379Z"
       fill="#28cd41"
       id="path1"
       style="fill:#5c7dda;fill-opacity:1" />
    <path
       d="M10.5859 18.1934C10.0732 18.1934 9.66797 17.959 9.30176 17.5146L6.24023 13.8574C5.98145 13.54 5.86914 13.2422 5.86914 12.9053C5.86914 12.2021 6.44043 11.6357 7.13867 11.6357C7.55371 11.6357 7.87109 11.7969 8.18848 12.1826L10.5566 15.0879L15.6592 6.9873C15.957 6.51367 16.333 6.26465 16.7773 6.26465C17.4609 6.26465 18.0859 6.7627 18.0859 7.4707C18.0859 7.76367 17.959 8.08594 17.7588 8.37402L11.8262 17.4951C11.5234 17.9395 11.084 18.1934 10.5859 18.1934Z"
       fill="#ffffff"
       id="path2" />
  </g>
</svg>
