<?xml version="1.0" encoding="UTF-8" standalone="no"?>
<!-- Created with Inkscape (http://www.inkscape.org/) -->

<svg
   width="107.16785mm"
   height="126.9875mm"
   viewBox="0 0 107.16785 126.9875"
   version="1.1"
   id="svg1"
   xml:space="preserve"
   inkscape:version="1.4.3 (0d15f750, 2025-12-25)"
   sodipodi:docname="con3.svg"
   xmlns:inkscape="http://www.inkscape.org/namespaces/inkscape"
   xmlns:sodipodi="http://sodipodi.sourceforge.net/DTD/sodipodi-0.dtd"
   xmlns="http://www.w3.org/2000/svg"
   xmlns:svg="http://www.w3.org/2000/svg"><sodipodi:namedview
     id="namedview1"
     pagecolor="#9f9f9f"
     bordercolor="#000000"
     borderopacity="0.25"
     inkscape:showpageshadow="2"
     inkscape:pageopacity="0.0"
     inkscape:pagecheckerboard="0"
     inkscape:deskcolor="#d1d1d1"
     inkscape:document-units="mm"
     showgrid="true"
     inkscape:zoom="0.73453373"
     inkscape:cx="240.28849"
     inkscape:cy="228.03582"
     inkscape:window-width="1171"
     inkscape:window-height="1186"
     inkscape:window-x="77"
     inkscape:window-y="30"
     inkscape:window-maximized="0"
     inkscape:current-layer="layer1"
     inkscape:clip-to-page="false"><inkscape:grid
       id="grid1"
       units="mm"
       originx="-14.642327"
       originy="89.784397"
       spacingx="1"
       spacingy="1"
       empcolor="#0099e5"
       empopacity="0.30196078"
       color="#0099e5"
       opacity="0.14901961"
       empspacing="5"
       enabled="true"
       visible="true" /><sodipodi:guide
       position="-14.642326,49.915602"
       orientation="0,480"
       id="guide1"
       inkscape:locked="false" /><sodipodi:guide
       position="112.35767,49.915602"
       orientation="527.99999,0"
       id="guide2"
       inkscape:locked="false" /><sodipodi:guide
       position="112.35767,-89.784398"
       orientation="0,-480"
       id="guide3"
       inkscape:locked="false" /><sodipodi:guide
       position="-14.642326,-89.784398"
       orientation="-527.99999,0"
       id="guide4"
       inkscape:locked="false" /></sodipodi:namedview><defs
     id="defs1" /><g
     inkscape:label="Layer 1"
     inkscape:groupmode="layer"
     id="layer1"
     transform="translate(-61.738163,-3.3043783)"
     style="opacity:1;mix-blend-mode:hue;fill:#033051;fill-opacity:1"><path
       style="fill:#033051;fill-opacity:1"
       d="m 71.07871,130.18661 -0.529167,-0.10541 -0.815671,-0.37033 -0.815671,-0.37033 -1.179688,-1.26534 -1.179688,-1.26535 -0.81404,-1.19062 -0.814039,-1.19063 -1.000119,-1.98437 -1.00012,-1.98438 -0.331588,-1.24868 -0.331589,-1.24869 0.273643,-1.07807 0.273643,-1.07806 0.881018,-0.831 0.881018,-0.831 2.668759,-0.85421 2.668759,-0.8542 2.831228,-1.38094 2.831228,-1.38094 1.190625,-0.81067 1.190625,-0.81067 0.322315,-0.41102 0.322315,-0.41101 0.0084,-0.97974 0.0084,-0.97974 0.297527,-0.74005 0.297527,-0.74006 0.26704,-0.66145 0.26704,-0.66146 0.293821,-0.66146 0.293822,-0.66146 0.727704,-1.190627 0.727703,-1.190625 0.464429,-0.65303 0.464428,-0.65303 1.749963,-1.9928 1.749962,-1.99281 2.483371,-2.35244 2.483371,-2.35244 2.338322,-2.27776 2.338322,-2.27777 1.91428,-2.38125 1.91428,-2.38125 1.069782,-1.5875 1.06979,-1.5875 1.60791,-2.69308 1.60791,-2.69309 0.56264,-1.10288 0.56265,-1.10288 -0.12837,-0.33454 -0.12837,-0.33453 -1.41145,0.11576 -1.41144,0.11576 -1.7198,0.52268 -1.719789,0.52267 -0.926042,0.41207 -0.926042,0.41206 -0.661458,0.33018 -0.661458,0.33018 -1.131922,0.62006 -1.131921,0.62007 -1.778495,1.41049 -1.778496,1.41049 -1.682132,1.64531 -1.682132,1.6453 -2.470667,2.94094 -2.470668,2.94093 -0.839856,0.7067 -0.839856,0.70669 -0.705029,0.36458 -0.705028,0.36459 -0.9658,0.18118 -0.965799,0.18119 -0.955274,-0.31527 -0.955275,-0.31527 -0.673517,-0.70313 -0.673518,-0.70313 -0.554136,-1.19062 -0.554136,-1.19063 -0.0046,-3.70417 -0.0046,-3.70416 0.609414,-1.98438 0.609414,-1.98437 0.88745,-1.85209 0.887449,-1.85208 1.209166,-1.71979 1.209166,-1.71979 1.738569,-1.76646 1.73857,-1.76646 1.56761,-1.14396 1.567609,-1.14396 2.29985,-1.19114 2.29985,-1.19115 0.223144,-0.92552 0.223145,-0.92552 0.287093,-0.92604 0.287094,-0.92604 0.794158,-1.19063 0.794158,-1.19062 0.954315,-1.01796 0.954316,-1.01796 1.455208,-0.9831 1.455208,-0.9831 0.926042,-0.42718 0.926042,-0.42718 1.190626,-0.38938 1.19063,-0.38937 2.11666,-0.29015 2.11667,-0.29016 2.4353,0.50496 2.4353,0.50495 1.66574,0.83749 1.66574,0.83749 0.9748,0.77163 0.9748,0.77163 0.37127,-0.37127 0.37127,-0.37127 0.83829,-3.85859 0.83829,-3.85859 0.63066,-4.03686 0.63066,-4.03686 0.28619,-3.43959 0.2862,-3.43958 0.29385,-3.83646 0.29385,-3.83646 0.50957,-2.11666 0.50957,-2.11667 0.57472,-1.45521 0.57473,-1.4552097 1.01305,-1.51023 1.01305,-1.51022 1.12217,-0.74682 1.12218,-0.74682 0.66146,-0.29811 0.66146,-0.2981 1.27209,-0.3278 1.27209,-0.32779 1.4681,0.32855 1.4681,0.32854 0.84944,0.35492 0.84944,0.35492 1.5836,1.19041 1.58359,1.19041 1.19286,1.53824 1.19286,1.5382397 0.82068,1.35543 0.82067,1.35544 0.68459,1.49668 0.6846,1.49667 v 0.26033 0.26033 l 0.24222,0.45943 0.24222,0.45944 0.52074,1.85208 0.52075,1.85208 0.27734,1.45521 0.27734,1.45521 0.32561,1.85208 0.32561,1.85209 3.1e-4,6.61458 3e-4,6.61458 -0.31874,2.64583 -0.31874,2.64584 -0.24762,1.5875 -0.24761,1.5875 -0.17391,1.56149 -0.17391,1.5615 0.63081,-0.18989 0.63082,-0.1899 1.45521,-0.43637 1.4552,-0.43637 3.04271,0.005 3.04271,0.005 1.71979,0.45148 1.71979,0.45148 1.94863,0.95282 1.94863,0.95282 1.38662,1.35959 1.38662,1.35958 0.77388,1.19063 0.77389,1.19062 0.32264,0.72761 0.32264,0.7276 0.24059,0.59531 0.24059,0.59531 0.16097,0.49689 0.16098,0.49688 0.42354,2.01666 0.42354,2.01666 5.8e-4,3.98731 5.7e-4,3.98731 -0.31657,1.8768 -0.31656,1.87681 -0.49846,0.4511 -0.49845,0.45109 -0.66448,-0.16677 -0.66449,-0.16678 -0.26344,-0.49224 -0.26344,-0.49225 0.2558,-0.89195 0.25581,-0.89194 v -1.24607 -1.24607 l -0.30177,-0.74005 -0.30176,-0.74005 -0.36105,-0.8366 -0.36105,-0.8366 -1.27742,-1.1485 -1.27741,-1.14851 -1.73252,-0.59458 -1.73253,-0.59459 h -2.42779 -2.42779 l -1.24164,0.29119 -1.24165,0.29118 -1.12448,0.50392 -1.12447,0.50392 v 0.23343 0.23342 l 1.81679,1.46791 1.8168,1.46791 1.25904,1.67075 1.25905,1.67075 0.85093,1.74341 0.85093,1.74341 0.19213,0.63784 0.19213,0.63784 0.24913,0.92604 0.24912,0.92604 0.3896,2.11667 0.38959,2.11666 0.005,3.57188 0.005,3.57187 -0.38878,1.85209 -0.38879,1.85208 -0.42987,1.45521 -0.42987,1.455212 -1.08579,2.23359 -1.0858,2.23359 -1.72868,1.8325 -1.72869,1.8325 -1.32758,0.84166 -1.32759,0.84165 -0.79375,0.3054 -0.79375,0.3054 -1.12448,0.28715 -1.12448,0.28716 -1.12448,-0.29917 -1.12448,-0.29917 -0.86017,-0.65075 -0.86017,-0.65074 -0.39656,-0.76685 -0.39655,-0.76686 -0.28807,-1.34319 -0.28806,-1.34319 0.59641,-5.831242 0.5964,-5.83124 -0.44171,-4.01743 -0.4417,-4.01744 -0.66831,-2.49592 -0.6683,-2.49592 -0.29841,-0.35957 -0.29841,-0.35956 -0.19092,0.20965 -0.19092,0.20965 -0.31698,1.05834 -0.31698,1.05833 -1.09198,2.77813 -1.09199,2.77812 -1.38026,2.69542 -1.38026,2.69541 -0.73922,1.27334 -0.73922,1.27333 -1.69379,2.51354 -1.6938,2.513542 -1.3451,1.71552 -1.34509,1.71551 -0.67452,0.79803 -0.67452,0.79803 -2.91042,2.92816 -2.91042,2.92817 -1.98437,1.59718 -1.98438,1.59718 -1.85208,1.25135 -1.85208,1.25135 -2.91042,1.40008 -2.91042,1.40009 -1.45521,0.45343 -1.4552,0.45344 -0.81152,0.24077 -0.811522,0.24077 -3.157232,0.15403 -3.157232,0.15404 -1.984375,-0.27504 -1.984375,-0.27505 -0.926042,-0.17645 -0.926042,-0.17644 -0.282171,-0.22344 -0.282171,-0.22344 -0.815952,-0.0622 -0.815951,-0.0622 -0.48256,0.385 -0.482559,0.385 -0.668276,0.56708 -0.668276,0.56708 -4.020719,3.4397 -4.020719,3.43971 -0.741781,0.51852 -0.741781,0.51851 -0.926042,0.1262 -0.926042,0.1262 z m 1.727066,-3.16522 0.654184,-0.44991 4.990904,-4.24644 4.990904,-4.24644 0.885759,-0.63023 0.885758,-0.63023 1.399379,0.55024 1.399379,0.55023 1.058333,0.25946 1.058334,0.25945 1.750297,0.28356 1.750298,0.28356 1.160119,-0.005 1.160119,-0.005 2.248958,-0.38175 2.248959,-0.38174 1.05834,-0.30194 1.05833,-0.30193 1.3969,-0.63462 1.39691,-0.63462 h 0.15919 0.1592 l 2.36362,-1.35259 2.36362,-1.3526 2.12103,-1.57265 2.12103,-1.57264 3.31241,-3.22346 3.31241,-3.22346 2.32157,-2.91328 2.32156,-2.913282 1.44494,-2.24895 1.44495,-2.24896 0.75123,-1.32292 0.75123,-1.32292 1.07806,-2.13268 1.07806,-2.13269 0.4836,-1.1746 0.48359,-1.17461 0.23291,-0.52917 0.23291,-0.52916 0.6987,-2.11667 0.69869,-2.11667 0.37074,-1.40197 0.37074,-1.40197 v -0.62606 -0.62607 l -1.19508,-1.05194 -1.19508,-1.05195 -1.46791,-0.71818 -1.46791,-0.71819 -1.5042,-0.35959 -1.5042,-0.3596 -1.85208,-0.002 -1.85209,-0.002 -1.85208,0.5387 -1.85209,0.53869 -0.57709,0.14242 -0.57709,0.14242 -0.87812,-0.66512 -0.87811,-0.66512 -1.79257,-0.81745 -1.79256,-0.81745 h -0.50693 -0.50692 l -0.16352,-0.26458 -0.16353,-0.26459 h -0.63339 -0.63339 l -0.68369,-0.3115 -0.68368,-0.31151 -0.3502,0.37765 -0.3502,0.37765 -1.51505,2.91042 -1.51504,2.91042 -1.49842,2.37958 -1.49841,2.37959 -0.31163,0.39854 -0.31163,0.39854 -1.38326,1.85208 -1.383268,1.85208 -1.876985,2.10762 -1.876984,2.10761 -1.447824,1.33197 -1.447824,1.33197 -1.846824,1.71979 -1.846824,1.71979 -1.732435,1.81586 -1.732436,1.81586 -1.123295,1.49143 -1.123295,1.491442 -0.976617,1.94061 -0.976617,1.94061 -0.429878,2.29272 -0.429878,2.29272 -1.968126,1.36962 -1.968127,1.36963 -2.645833,1.32869 -2.645834,1.32869 -2.763836,0.92531 -2.763837,0.92531 -0.477309,0.40868 -0.477309,0.40869 v 0.55891 0.55892 l 1.025875,2.18916 1.025874,2.18915 1.05692,1.4307 1.056919,1.4307 0.969121,0.8509 0.96912,0.8509 h 0.461089 0.461089 z m 74.964284,-19.64037 1.62532,-0.77571 1.2199,-1.16888 1.21989,-1.16888 1.09521,-1.61277 1.09521,-1.61277 v -0.14969 -0.14969 l 0.49461,-1.121607 0.4946,-1.121585 0.2782,-1.05834 0.2782,-1.05833 0.31199,-1.17734 0.31199,-1.17734 v -4.17264 -4.17264 l -0.32436,-1.39689 -0.32435,-1.3969 -0.51001,-1.68665 -0.51002,-1.68666 -0.5604,-1.22376 -0.5604,-1.22376 -1.42087,-1.9132 -1.42088,-1.9132 -0.98113,-0.73113 -0.98113,-0.73113 -0.13229,-0.16927 -0.13229,-0.16928 -0.99219,-0.55983 -0.99218,-0.55984 -0.8599,-0.47389 -0.8599,-0.47389 -1.98437,-0.60362 -1.98438,-0.60363 -0.92604,-0.28751 -0.92604,-0.28752 -4.23333,-0.0111 -4.23334,-0.0111 -0.59531,0.32708 -0.59531,0.32707 v 0.23907 0.23906 l 1.25677,0.1805 1.25677,0.1805 1.85208,0.8519 1.85209,0.85191 1.36562,1.2362 1.36562,1.23621 0.98104,1.47801 0.98104,1.478 0.88145,2.034 0.88144,2.034 0.5147,2.10695 0.51471,2.10695 0.30408,1.66152 0.30409,1.66153 0.14706,3.49785 0.14707,3.49785 -0.31419,3.04271 -0.31419,3.042712 -0.13677,2.78705 -0.13677,2.78705 0.79492,0.85097 0.79493,0.85097 h 0.8482 0.84821 z m -68.282789,-24.645352 0.988503,-0.81481 2.520006,-3.00675 2.520006,-3.00676 2.17417,-2.02686 2.17417,-2.02686 2.38125,-1.64838 2.38125,-1.64837 1.852084,-0.87271 1.852083,-0.8727 0.529167,-0.22331 0.529166,-0.2233 2.045664,-0.53531 2.04565,-0.53532 h 2.91149 2.91148 l 1.26057,0.30482 1.26057,0.30481 1.5875,0.52252 1.5875,0.52253 1.04405,0.49662 1.04406,0.49663 0.22686,-0.22686 0.22686,-0.22686 -0.66436,-1.45246 -0.66437,-1.45245 -1.00343,-1.32952 -1.00342,-1.32951 -0.92605,-0.76085 -0.92604,-0.76086 -0.30649,-0.28927 -0.3065,-0.28928 -1.33889,-0.85916 -1.33889,-0.85916 -1.39732,-0.53885 -1.39732,-0.53884 -1.45521,-0.35549 -1.45521,-0.35549 -3.02679,-0.009 -3.026777,-0.009 -1.603426,0.30424 -1.603427,0.30425 -2.335667,0.77307 -2.335667,0.77308 -1.313997,0.77476 -1.313997,0.77476 H 86.66161 86.525089 l -1.240898,0.94088 -1.240898,0.94088 -1.423526,1.37422 -1.423525,1.37423 -1.118454,1.45521 -1.118453,1.45521 -0.825457,1.46597 -0.825457,1.46596 -0.643268,1.77349 -0.643268,1.77348 -0.32192,1.90855 -0.32192,1.90856 0.156131,1.67197 0.15613,1.67196 0.523595,1.18368 0.523595,1.18367 h 0.880636 0.880635 z m 42.328179,-14.76429 1.1216,-0.49784 0.92604,-0.32261 0.92604,-0.3226 0.52917,-0.21946 0.52917,-0.21945 1.32291,-0.27547 1.32292,-0.27547 1.24164,-0.27212 1.24164,-0.27213 h 3.70007 3.70006 l 0.78829,-2.05052 0.78828,-2.05052 0.79059,-2.77813 0.79059,-2.77812 0.12745,-0.66146 0.12745,-0.66146 0.40055,-1.98437 0.40054,-1.98438 0.28358,-1.85208 0.28358,-1.85209 0.28783,-1.98306 0.28783,-1.98307 0.14462,-5.68985 0.14463,-5.68985 -0.29318,-3.04271 -0.29318,-3.0427 -0.24413,-1.32292 -0.24412,-1.32292 -0.26165,-1.19062 -0.26165,-1.19063 -0.7089,-2.11174 -0.70889,-2.11174 -0.79785,-1.59243 -0.79785,-1.59242 -1.13443,-1.59987 -1.13442,-1.5998697 -1.1369,-0.99657 -1.13691,-0.99656 -1.40948,-0.64471 -1.40949,-0.64471 h -1.04295 -1.04294 l -1.39661,0.62295 -1.39661,0.62294 -0.83906,1.05541 -0.83906,1.0554 -0.51868,1.1659197 -0.51868,1.16592 -0.28031,0.79375 -0.28032,0.79375 -0.26874,1.45521 -0.26874,1.45521 -0.27601,1.56548 -0.27602,1.56548 7.2e-4,1.74181 7.3e-4,1.74181 -0.26847,2.91042 -0.26848,2.91041 -0.27496,2.24896 -0.27496,2.24896 -0.54087,3.30729 -0.54086,3.30729 -1.0142,4.36563 -1.0142,4.36562 -1.05704,3.43958 -1.05704,3.43959 -0.54936,1.51474 -0.54935,1.51475 v 0.28078 0.28079 l 1.33096,1.73651 1.33097,1.73651 0.52025,1.01979 0.52026,1.01979 0.55052,1.53358 0.55052,1.53359 0.1035,0.33073 0.1035,0.33073 h 0.14348 0.14347 z m 44.64556,-1.46266 v -0.87094 l -0.23372,-0.76709 -0.23371,-0.76709 -0.35566,-1.19062 -0.35567,-1.19063 -0.62529,-1.30531 -0.62529,-1.30531 -1.6296,-1.62764 -1.6296,-1.62764 -2.11667,-0.81412 -2.11667,-0.81412 -2.1315,-0.31076 -2.13149,-0.31076 -2.2777,0.39306 -2.27769,0.39306 -1.64779,0.88665 -1.64778,0.88664 -0.20317,0.39688 -0.20316,0.39687 -0.56956,2.11667 -0.56955,2.11667 -0.81093,2.22775 -0.81092,2.22776 0.48129,0.35193 0.4813,0.35193 h 0.69026 0.69027 l 0.25135,0.21858 0.25136,0.21858 1.12745,0.35392 1.12745,0.35392 0.59234,-0.53224 0.59234,-0.53224 1.19063,-0.46211 1.19062,-0.4621 1.05833,-0.34418 1.05834,-0.34418 2.20018,-0.3428 2.20018,-0.3428 2.24843,0.32509 2.24842,0.32509 1.37223,0.5228 1.37222,0.52279 1.19063,0.88787 1.19062,0.88787 0.19844,-0.11338 0.19844,-0.11337 z m -53.18126,-10.17302 v -0.46064 l 0.21694,-0.25135 0.21694,-0.25136 0.60046,-1.85525 0.60047,-1.85526 -0.0898,-0.78163 -0.0898,-0.78164 -1.32292,-1.00683 -1.32292,-1.00683 -1.32291,-0.65367 -1.32292,-0.65367 -1.53426,-0.39896 -1.53427,-0.39896 h -1.32513 -1.32514 l -1.24164,0.28668 -1.24164,0.28669 -0.52917,0.20247 -0.52917,0.20248 -1.555582,0.71538 -1.555581,0.71537 -1.512279,1.44247 -1.51228,1.44247 -0.604146,1.17465 -0.604146,1.17466 0.164409,0.42844 0.164409,0.42844 0.260167,-0.16079 0.260167,-0.16079 2.321389,-0.38053 2.321389,-0.38052 1.984374,5.8e-4 1.98438,5.9e-4 1.98437,0.36451 1.98438,0.36452 1.35804,0.4542 1.35805,0.45421 1.94924,1.00064 1.94925,1.00064 0.19844,-0.12039 0.19844,-0.12039 z"
       id="path1" /></g></svg>
