<?xml version="1.0" encoding="UTF-8" standalone="no"?>
<!-- Created with Inkscape (http://www.inkscape.org/) -->

<svg
   version="1.1"
   id="svg1"
   width="360"
   height="360"
   viewBox="0 0 360 360"
   sodipodi:docname="ctg1.svg"
   inkscape:version="1.4.3 (0d15f750, 2025-12-25)"
   xmlns:inkscape="http://www.inkscape.org/namespaces/inkscape"
   xmlns:sodipodi="http://sodipodi.sourceforge.net/DTD/sodipodi-0.dtd"
   xmlns="http://www.w3.org/2000/svg"
   xmlns:svg="http://www.w3.org/2000/svg">
  <defs
     id="defs1">
    <filter
       inkscape:label="Inset"
       inkscape:menu="Shadows and Glows"
       inkscape:menu-tooltip="Shadowy outer bevel"
       style="color-interpolation-filters:sRGB;"
       id="filter2"
       x="-0.040862454"
       y="-0.049632847"
       width="1.0817193"
       height="1.0993167">
      <feMorphology
         result="result1"
         in="SourceAlpha"
         operator="dilate"
         radius="3.6"
         id="feMorphology1" />
      <feGaussianBlur
         stdDeviation="3.6"
         in="result1"
         result="result0"
         id="feGaussianBlur1" />
      <feDiffuseLighting
         surfaceScale="-5"
         id="feDiffuseLighting1">
        <feDistantLight
           elevation="45"
           azimuth="225"
           id="feDistantLight1" />
      </feDiffuseLighting>
      <feComposite
         in2="result0"
         operator="in"
         result="result91"
         id="feComposite1" />
      <feComposite
         in="SourceGraphic"
         in2="result91"
         id="feComposite2" />
    </filter>
  </defs>
  <sodipodi:namedview
     id="namedview1"
     pagecolor="#ffffff"
     bordercolor="#000000"
     borderopacity="0.25"
     inkscape:showpageshadow="2"
     inkscape:pageopacity="0.0"
     inkscape:pagecheckerboard="0"
     inkscape:deskcolor="#d1d1d1"
     showgrid="false"
     inkscape:zoom="1.3854167"
     inkscape:cx="358.37593"
     inkscape:cy="463.75939"
     inkscape:window-width="1635"
     inkscape:window-height="1186"
     inkscape:window-x="0"
     inkscape:window-y="30"
     inkscape:window-maximized="0"
     inkscape:current-layer="g1" />
  <g
     inkscape:groupmode="layer"
     inkscape:label="Image"
     id="g1"
     transform="translate(-38.27621,-12.923297)"
     style="fill:#f8a648;fill-opacity:1">
    <path
       id="path1"
       style="display:inline;fill:#f8a648;fill-opacity:1;stroke:#f8a648;stroke-width:1;stroke-dasharray:none;stroke-opacity:1;filter:url(#filter2)"
       d="m 340.55355,87.476031 c -1.65848,0.04712 -3.35347,0.179101 -5.08007,0.396485 1.68853,1.327809 3.299,2.759433 4.83984,4.287109 3.77494,3.607717 7.55979,7.219212 11.00976,11.144535 4.35528,5.12504 8.58912,10.36015 12.10352,16.11328 3.89345,6.32366 7.5141,12.8207 10.27148,19.73242 1.41373,3.47148 3.0058,6.93129 3.77149,10.61719 4.7283,-44.34117 -12.03883,-62.997873 -36.91602,-62.291019 z m -14.94726,2.451172 c -13.35836,3.806783 -28.03296,11.908147 -42.48633,23.578127 -0.0444,3.14834 -0.0697,6.2969 -0.0918,9.44531 -0.0755,5.53065 0.16911,11.05735 0.50391,16.57617 0.17419,5.39586 0.65675,10.74695 1.50391,16.07617 0.83507,5.11034 2.11243,10.12102 3.64257,15.0625 0.0609,0.18203 0.1225,0.36486 0.1836,0.54688 6.27477,-10.68082 10.60019,-19.70606 13.0957,-25.42773 -2.16323,6.08523 -5.65869,16.66235 -10.40625,32.9082 0.4972,1.24913 1.02274,2.48561 1.58984,3.70508 1.55235,3.06882 3.27632,6.04621 5.03516,9 0.29205,0.50509 0.58985,1.00737 0.89258,1.50586 0.52521,-0.47582 1.21821,-0.92837 2.11719,-1.35938 0.0729,-0.0349 0.14464,-0.0626 0.21875,-0.082 -1.21032,-1.89614 -2.36428,-3.82573 -3.41016,-5.82031 -0.39559,-0.75388 -0.67301,-1.55897 -1.05859,-2.31641 -2.02601,-3.97994 -0.20025,-6.74081 2.21093,-6.68164 1.44671,0.0355 3.10355,1.08648 4.26758,3.5 0.34294,0.71106 0.65401,1.43196 0.97656,2.15234 1.87339,3.59214 4.16248,6.9382 6.4336,10.28711 3.06901,4.44691 6.13827,8.89581 9.2539,13.31055 -0.12985,-5.18403 -0.0772,-10.37186 0.64649,-15.50195 0.82753,-2.80643 0.61779,-4.07028 4.83398,-4.80664 2.45212,-0.42826 4.35574,4.00022 5.04492,5.62695 2.79885,6.72065 5.53955,13.46909 8.08204,20.29102 0.22843,0.64918 0.43114,1.21622 0.61718,1.73828 2.99642,-2.28007 6.77043,0.62607 4.53907,5.8125 -0.74835,1.73944 -1.44275,3.51925 -2.38672,5.16406 -1.21071,0.55757 -2.32327,1.92048 -3.63282,1.67187 -3.28909,-0.62443 -3.20499,-3.52736 -3.8457,-5.75781 -0.64989,-2.2624 -1.29109,-3.94547 -2.09765,-6.22851 -1.48603,-3.97795 -3.03918,-7.93143 -4.63086,-11.86914 0.007,4.29628 0.22464,8.59918 0.36718,12.88085 0.0182,0.49905 0.0363,0.999 0.0547,1.49805 0.80892,1.09158 1.62149,2.17814 2.44141,3.26172 6.23577,8.33569 12.43229,16.70394 18.30273,25.30078 1.82334,-3.629 3.58984,-7.42094 5.29102,-11.38281 8.54032,-20.97815 14.62425,-39.43585 18.60156,-55.53711 -0.053,-2.37747 -0.14011,-4.75357 -0.25586,-7.12891 -0.29911,-4.15667 -0.4142,-8.33041 -0.79883,-12.48047 -0.26788,-2.34692 -0.43926,-4.70186 -0.81054,-7.03515 -0.69443,-3.31289 -2.15868,-6.41804 -3.42969,-9.53906 -2.60987,-6.54093 -6.04032,-12.687 -9.73047,-18.66797 -3.32338,-5.44054 -7.33959,-10.3796 -11.45899,-15.22461 -3.29381,-3.73043 -6.90111,-7.16601 -10.49609,-10.601565 -2.74916,-2.711653 -5.70027,-5.126771 -9.03125,-7.076172 -0.22878,-0.127352 -0.45853,-0.252135 -0.68945,-0.375 z m -49.77344,29.783207 c -14.92484,13.38189 -29.32642,30.5001 -41.4707,50.5332 1.3732,4.0797 2.79398,8.14199 4.29297,12.17773 1.82707,4.75361 3.77699,9.45787 5.78906,14.13477 7.56991,-8.60484 18.32364,-20.2527 21.01953,-20.1875 2.12377,0.0514 -0.75402,7.37147 -14.12891,29.17383 -0.72663,0.77027 -1.3941,1.47223 -2.00976,2.10547 1.5431,3.4121 3.11443,6.81162 4.72656,10.1914 l 0.68555,-0.70117 c 12.00624,-12.77931 21.71659,-26.06372 29.26562,-37.96875 -0.788,-2.106 -1.51643,-4.23567 -2.21875,-6.37109 -1.6269,-5.27024 -2.99028,-10.61302 -3.87695,-16.0625 -0.88084,-5.55959 -1.3971,-11.14313 -1.58008,-16.77149 -0.34424,-5.68116 -0.59418,-11.37118 -0.51758,-17.06445 0.007,-1.06319 0.0146,-2.12617 0.0234,-3.18945 z m -65.92578,5.38476 c -2.11094,0.0906 -5.10368,0.81508 -9.3457,1.93946 -16.90433,4.48058 -29.53446,12.67298 -37.0918,24.05859 -4.36943,6.58283 -3.81511,6.49027 -7.60742,1.25 -11.53658,-15.94141 -22.9375,-21.94228 -22.9375,-12.07422 0,0.83131 3.38351,5.15163 7.51758,9.60156 13.28926,14.3046 17.63165,27.6892 14.32617,44.14844 -1.50216,7.4798 -2.09117,7.58421 -13.06641,2.31445 -52.120676,-25.02579 -87.013558,15.78799 -71.607421,83.75977 6.92266,30.54274 30.192861,57.71304 53.857421,62.88476 10.22479,2.23456 23.71321,1.14939 30.57422,-2.45898 1.60896,-0.84619 3.2139,-0.72713 6.83984,0.50391 18.14233,6.15948 39.78985,2.34705 51.75391,-9.11524 5.99095,-5.73971 58.7051,0.20667 103.09766,-42.37109 0.0272,-0.59318 0.0607,-1.18638 0.12109,-1.77735 0.0616,-0.58296 0.13753,-1.16353 0.23828,-1.74023 -3.18435,-0.42246 -6.33955,-1.06303 -9.45508,-1.91211 -6.35322,-1.80086 -12.58455,-4.03745 -18.1582,-7.66016 -3.89383,-2.57514 -7.64008,-5.36483 -10.88086,-8.74804 -2.20775,-2.24998 -4.28646,-4.60742 -6.13281,-7.16602 -1.6438,-2.01203 -3.20922,-4.08636 -4.72656,-6.19531 -1.82705,-2.73072 -3.77934,-5.37516 -5.56446,-8.13477 -0.47762,-0.70924 -0.94976,-1.42214 -1.41601,-2.13867 -1.63422,1.94402 -3.08433,3.61326 -4.16993,4.7793 -5.05787,5.43277 -7.14375,6.01589 -7.15625,2 -0.005,-1.5125 -0.46575,-7.90402 -1.02343,-14.20508 l -1.01367,-11.45703 1.80468,-1.84766 c -1.81375,-3.74519 -3.5734,-7.51666 -5.29687,-11.30468 -2.00636,0.18273 -3.63915,-1.96829 -6.70899,-6.44922 0,0 0.95579,-1.1423 2.52149,-2.97461 -2.55106,-5.84304 -5.02705,-11.71873 -7.3125,-17.67188 -0.7915,-2.13337 -1.56248,-4.27334 -2.31641,-6.41992 -2.38878,4.32053 -4.66983,8.76129 -6.82812,13.31641 l -8.94336,-1.81641 c -12.60209,-2.5583 -24.41517,-1.07199 -37.27735,4.68945 -5.00359,2.24129 -9.66015,4.30654 -10.34765,4.58985 -0.89076,0.36706 -1.25,-0.77306 -1.25,-3.96875 0,-5.27229 0.96828,-6.26728 7,-7.19531 27.01245,-4.15608 43,-23.47316 43,-51.95508 0,-8.41093 -0.37352,-11.27745 -5.01758,-11.07813 z m -7.06836,11.79688 c 3.40755,0.004 3.26197,3.50478 1.13281,11.26562 -4.39165,16.0077 -15.26801,26.83014 -29.04687,28.9043 -2.475,0.37257 -5.2887,0.90108 -6.25391,1.17383 -2.64155,0.74644 -3.24032,-2.18726 -1.83398,-8.9961 2.54024,-12.29861 9.95377,-21.02837 23.51172,-27.6875 6.1635,-3.02727 10.15875,-4.66282 12.49023,-4.66015 z m 85.70898,52.25586 c -2.04725,7.24589 -4.28296,15.39075 -6.70117,24.50586 -1.96654,3.39035 -3.95847,6.88034 -5.97461,10.4707 -2.10259,3.03707 -6.50765,8.74003 -10.8125,14.07812 0.8418,1.33414 1.70345,2.65642 2.58594,3.96485 1.79213,2.76317 3.74264,5.41963 5.57617,8.15429 1.39354,1.91546 2.81575,3.80959 4.31641,5.64258 1.72016,2.37789 3.62876,4.58287 5.68945,6.66992 2.88871,3.01726 6.23083,5.50136 9.70899,7.78711 4.95793,3.20039 10.50093,5.1554 16.14453,6.73829 3.06624,0.82219 6.17485,1.44235 9.3125,1.82031 0.12409,-0.61581 0.24053,-1.23521 0.45898,-1.82617 0.33083,-1.0699 0.35274,-1.05026 0.47852,-1.97657 0.23403,-1.25173 0.50829,-2.49455 0.86133,-3.71875 0.55544,-2.00026 1.12161,-3.9978 1.66992,-6 0.48055,-1.81704 1.00288,-3.63234 1.29687,-5.49023 0.16284,-1.78471 0.31132,-3.56214 0.22852,-5.35742 0,-2.15709 1.5e-4,-4.31362 -0.002,-6.47071 -0.002,-1.64296 -0.006,-3.28677 -0.0215,-4.92968 -2e-5,-0.002 2e-5,-0.002 0,-0.004 -2.97589,-4.01265 -5.90325,-8.08103 -8.37695,-11.74609 -2.3699,-3.51127 -4.53764,-7.15318 -6.80664,-10.73047 -0.28686,-0.52517 -0.55919,-1.02026 -0.81836,-1.49024 -1.53508,-0.15756 -3.14194,-1.56039 -3.80664,-4.44726 -0.24997,-1.08567 -0.61613,-2.10703 -1.23047,-3.05078 -1.14275,-2.13133 -2.2407,-4.29312 -3.65821,-6.26172 -2.2849,-3.42679 -4.62846,-6.82321 -6.6914,-10.39063 -1.16932,-1.96476 -2.32505,-3.93857 -3.42774,-5.9414 z m 34.08008,2.41015 v 0.002 0.002 l 0.002,0.002 0.002,0.002 0.002,0.002 c 0.0727,0.0503 0.14503,0.10551 0.21485,0.16601 -0.0229,-0.0334 -0.0465,-0.0666 -0.0703,-0.0996 -0.0232,-0.0321 -0.11758,-0.0694 -0.14453,-0.0742 l -0.002,-0.002 h -0.002 z m -208.49609,7.41602 c 7.82338,0.33361 17.0238,3.41092 28.29297,9.40039 10.94672,5.8181 19.2448,5.45646 33.5,-1.45508 27.28996,-13.23138 44.62589,-9.90638 55.70312,10.68164 8.17224,15.18883 8.62677,42.72154 1.10547,66.99219 -10.62827,34.29662 -40.81709,56.13407 -64.82226,46.88867 -8.44135,-3.25112 -10.37457,-3.31133 -19.24415,-0.58594 -13.35842,4.1047 -17.55834,4.03173 -29.08398,-0.5039 -16.15062,-6.35569 -33.358941,-28.56945 -38.578124,-49.79883 -10.739003,-43.68162 -0.645588,-75.4678 25.736324,-81.04492 2.32712,-0.49196 4.78283,-0.68543 7.39063,-0.57422 z m 215.32812,31.9082 c 0.1229,0.73947 0.24269,1.47963 0.35743,2.2207 0.33175,1.9238 0.51122,3.86583 0.63281,5.8125 0.0367,0.61025 0.0627,1.22103 0.082,1.83204 2.33369,3.1186 4.65885,6.15939 6.76367,8.88086 1.67523,2.166 3.36708,4.31537 5.07617,6.44921 0.74668,-1.26711 1.48733,-2.55771 2.21875,-3.87109 -4.84368,-7.24907 -9.94538,-14.31705 -15.13086,-21.32422 z m 1.14649,21.89063 c 3e-4,0.61255 -2.9e-4,1.22535 0,1.83789 0.0782,2.01309 -0.0771,4.01137 -0.25977,6.01367 -0.29251,2.26672 -0.9236,4.4743 -1.50586,6.67969 -0.55639,2.02993 -1.13026,4.05337 -1.6914,6.08203 -0.29854,1.02483 -0.52753,2.06459 -0.72266,3.11328 -0.11047,0.93343 -0.39695,1.83966 -0.66406,2.73828 -0.014,0.0501 -0.0272,0.10008 -0.041,0.15039 0.0295,-0.002 0.0586,-0.002 0.0879,-0.004 4.32293,-5.04117 8.52145,-10.62151 12.53711,-16.80078 -2.29578,-2.83718 -4.56413,-5.69873 -6.80078,-8.59179 -0.3093,-0.40008 -0.62211,-0.80672 -0.93945,-1.21875 z m -76.77539,12.89648 c -3.58559,7.13231 -7.22168,14.5485 -10.90235,22.25586 1.47505,-4.38128 2.70223,-8.77141 3.52735,-12.7793 0.32361,-1.57193 2.68968,-4.62263 7.375,-9.47656 z m -22.13282,46.39063 c -0.79909,1.76184 -1.59997,3.53771 -2.40234,5.32617 -0.0109,0.0162 -0.0211,0.0296 -0.0273,0.0351 h -0.002 l -0.002,0.002 h -0.002 -0.002 -0.002 v -0.002 l -0.002,-0.002 v -0.002 c -0.0241,-0.16138 0.96923,-2.71373 2.4414,-5.35742 z" />
  </g>
</svg>
