<?xml version="1.0" encoding="UTF-8"?>
<svg version="1.1" viewBox="0 0 360 360" xmlns="http://www.w3.org/2000/svg">
 <defs>
  <filter id="filter2" x="-.049505" y="-.049498" width="1.099" height="1.0992" color-interpolation-filters="sRGB">
   <feMorphology in="SourceAlpha" operator="dilate" radius="3.6" result="result1"/>
   <feGaussianBlur in="result1" result="result0" stdDeviation="3.6"/>
   <feDiffuseLighting surfaceScale="-5">
    <feDistantLight azimuth="225" elevation="45"/>
   </feDiffuseLighting>
   <feComposite in2="result0" operator="in" result="result91"/>
   <feComposite in="SourceGraphic" in2="result91"/>
  </filter>
 </defs>
 <g transform="translate(-38.276 -12.923)">
  <path d="m123.95 342.98c-23.665-5.1717-46.934-32.342-53.857-62.884-15.406-67.972 19.487-108.79 71.607-83.761 10.975 5.2698 11.565 5.1654 13.067-2.3144 3.3055-16.459-1.0378-29.843-14.327-44.147-4.1341-4.4499-7.5165-8.771-7.5165-9.6023 0-9.8681 11.4-3.8665 22.937 12.075 3.7923 5.2403 3.2384 5.3314 7.6079-1.2514 7.5573-11.386 20.187-19.578 37.092-24.058 13.574-3.598 14.364-3.0958 14.364 9.1382 0 28.482-15.988 47.799-43 51.955-6.0317 0.92803-7 1.9234-7 7.1957 0 3.1957 0.35924 4.3365 1.25 3.9694 0.6875-0.28331 5.3438-2.3489 10.347-4.5902 12.862-5.7614 24.674-7.2473 37.276-4.689l8.9435 1.8156 6.3413-3.8375c15.271-9.2414 31.986-24.753 42.621-39.553 3.421-4.7606 6.2199-8.9033 6.2199-9.206 0-0.30269 1.2613-2.7077 2.8028-5.3444 3.4556-5.9106 12.697-27.358 14.131-32.794 2.587-9.8091-0.58147-21.57-10.175-37.768-3.903-6.59-3.9764-6.8835-2.7846-11.14 3.8109-13.611 23.288-22.028 26.07-11.266 2.909 11.255 16.412 29.734 23.726 32.469 1.5017 0.56146 4.9711 1.8499 7.7097 2.8632 14.359 5.3128 29.05 26.736 33.151 48.342 5.7055 30.062-0.59257 66.482-18.849 109-24.492 57.04-69.763 90.985-126.55 94.894-10.289 0.7081-11.514 1.0066-14.032 3.4194-11.964 11.462-33.611 15.275-51.753 9.1156-3.6259-1.231-5.2306-1.349-6.8396-0.50282-6.861 3.6084-20.351 4.6931-30.576 2.4585zm24.715-12.082c8.8696-2.7254 10.803-2.6667 19.245 0.58446 24.005 9.2454 54.193-12.591 64.822-46.887 7.5213-24.271 7.0671-51.805-1.1052-66.993-11.077-20.588-28.413-23.912-55.702-10.681-14.255 6.9115-22.553 7.2716-33.5 1.4535-15.026-7.986-26.375-10.793-35.684-8.825-26.382 5.5771-36.476 37.364-25.737 81.045 5.2192 21.229 22.428 43.443 38.579 49.799 11.526 4.5356 15.725 4.6084 29.083 0.50365zm96.7-15.259c55.684-12.822 96.73-58.641 112.91-126.04 0.85835-3.575 2.3673-9.875 3.3532-14 2.8722-12.017 2.5855-44.96-0.47571-54.654-6.3171-20.004-15.898-31.737-29.732-36.41-9.9657-3.3669-23.973-17.989-30.143-31.467-2.8805-6.2919-3.4647-6.53-6.2888-2.564-2.7969 3.9279-2.6997 4.4093 2.2068 10.922 6.2856 8.3427 11.053 15.958 13.885 22.18l2.5059 5.5055-0.75157 33.994c-0.51291 23.199-1.234 36.586-2.2706 42.157-6.897 37.06-23.704 67.914-52.235 95.889-7.6967 7.5469-11.463 11.987-11.878 14-2.4122 11.717-8.2569 26.71-13.703 35.152-2.2013 3.4122-3.7564 6.6019-3.4559 7.0882 0.57851 0.93604 7.844 0.14548 16.069-1.7485zm10.708-66.794c5.1886-5.5731 18.713-22.644 20.796-26.25 0.79439-1.375 2.9024-4.8995 4.6844-7.8323 12.668-20.848 21.339-54.164 21.363-82.084 0.0103-11.83-0.20149-11.555-4.5092 5.8469-8.2654 33.39-19.83 54.207-43.67 78.613l-7.8572 8.0435 1.014 11.456c0.55768 6.3011 1.0178 12.694 1.0225 14.206 0.0125 4.0159 2.0992 3.4328 7.1571-2zm-4.7386-43.302c13.539-14.352 25.474-33.219 31.22-49.354 2.1051-5.9109 1.1137-5.4224-5.2511 2.587-10.537 13.26-23.219 24.927-37.766 34.743l-7.6067 5.133 4.747 6.929c5.9059 8.6206 6.4907 8.6191 14.657-0.0375zm-76.41-28.48c13.779-2.0742 24.654-12.897 29.046-28.904 3.586-13.071 1.5499-14.058-13.622-6.6067-13.558 6.6591-20.972 15.39-23.512 27.689-1.4063 6.8088-0.80867 9.7422 1.8329 8.9958 0.96521-0.27275 3.7799-0.80073 6.2549-1.1733z" fill="#f8a648" filter="url(#filter2)" stroke="#f8a648" stroke-width="6"/>
 </g>
</svg>
