<?xml version="1.0" encoding="UTF-8" standalone="no"?>
<!-- Created with Inkscape (http://www.inkscape.org/) -->

<svg
   version="1.1"
   id="svg1"
   width="360"
   height="360"
   viewBox="0 0 360 360"
   sodipodi:docname="img1.svg"
   inkscape:version="1.4.3 (0d15f750, 2025-12-25)"
   xmlns:inkscape="http://www.inkscape.org/namespaces/inkscape"
   xmlns:sodipodi="http://sodipodi.sourceforge.net/DTD/sodipodi-0.dtd"
   xmlns="http://www.w3.org/2000/svg"
   xmlns:svg="http://www.w3.org/2000/svg">
  <defs
     id="defs1">
    <filter
       inkscape:label="Inset"
       inkscape:menu="Shadows and Glows"
       inkscape:menu-tooltip="Shadowy outer bevel"
       style="color-interpolation-filters:sRGB;"
       id="filter2"
       x="-0.04196931"
       y="-0.041971997"
       width="1.0839304"
       height="1.0839937">
      <feMorphology
         result="result1"
         in="SourceAlpha"
         operator="dilate"
         radius="3.6"
         id="feMorphology1" />
      <feGaussianBlur
         stdDeviation="3.6"
         in="result1"
         result="result0"
         id="feGaussianBlur1" />
      <feDiffuseLighting
         surfaceScale="-5"
         id="feDiffuseLighting1">
        <feDistantLight
           elevation="45"
           azimuth="225"
           id="feDistantLight1" />
      </feDiffuseLighting>
      <feComposite
         in2="result0"
         operator="in"
         result="result91"
         id="feComposite1" />
      <feComposite
         in="SourceGraphic"
         in2="result91"
         id="feComposite2" />
    </filter>
  </defs>
  <sodipodi:namedview
     id="namedview1"
     pagecolor="#ffffff"
     bordercolor="#000000"
     borderopacity="0.25"
     inkscape:showpageshadow="2"
     inkscape:pageopacity="0.0"
     inkscape:pagecheckerboard="0"
     inkscape:deskcolor="#d1d1d1"
     showgrid="false"
     inkscape:zoom="1.3854167"
     inkscape:cx="127.3985"
     inkscape:cy="128.1203"
     inkscape:window-width="1171"
     inkscape:window-height="1186"
     inkscape:window-x="0"
     inkscape:window-y="30"
     inkscape:window-maximized="0"
     inkscape:current-layer="g1" />
  <g
     inkscape:groupmode="layer"
     inkscape:label="Image"
     id="g1"
     transform="translate(-38.27621,-12.923297)">
    <path
       style="fill:#0771bf;fill-opacity:1;stroke:#0991f3;stroke-width:1.37953;stroke-dasharray:none;stroke-opacity:1;filter:url(#filter2)"
       d="M 123.95102,342.97835 C 100.28646,337.80663 77.01711,310.63671 70.09445,280.09397 54.688313,212.12219 89.581021,171.30723 141.7017,196.33302 c 10.97524,5.26976 11.56455,5.16538 13.06671,-2.31442 3.30548,-16.45924 -1.03784,-29.84272 -14.3271,-44.14732 -4.13407,-4.44993 -7.51649,-8.77095 -7.51649,-9.60226 0,-9.86806 11.40029,-3.86646 22.93687,12.07495 3.79231,5.24027 3.23844,5.33138 7.60787,-1.25145 7.55734,-11.38561 20.18717,-19.5775 37.0915,-24.05808 13.57448,-3.59799 14.36376,-3.09585 14.36376,9.13823 0,28.48192 -15.98755,47.79899 -43,51.95507 -6.03172,0.92803 -7,1.92338 -7,7.19567 0,3.19569 0.35924,4.3365 1.25,3.96944 0.6875,-0.28331 5.34384,-2.34888 10.34743,-4.59017 12.86218,-5.76144 24.67435,-7.24729 37.27644,-4.68899 l 8.94347,1.81558 6.34133,-3.83746 c 15.27123,-9.24138 31.9856,-24.75263 42.62142,-39.55348 3.42095,-4.7606 6.21991,-8.90329 6.21991,-9.20599 0,-0.30269 1.26126,-2.70766 2.8028,-5.34436 3.45561,-5.91061 12.69739,-27.35797 14.13108,-32.79399 2.58705,-9.809115 -0.58147,-21.570315 -10.17494,-37.768305 -3.90301,-6.58999 -3.97637,-6.88348 -2.78459,-11.14011 3.81094,-13.61133 23.28798,-22.028339 26.06956,-11.26598 2.90903,11.25547 16.412,29.7344 23.72568,32.46882 1.50173,0.56146 4.9711,1.8499 7.70973,2.8632 14.35878,5.31281 29.04997,26.736475 33.1506,48.342365 5.70551,30.06197 -0.59257,66.48188 -18.84934,108.99999 -24.49215,57.03966 -69.7631,90.98523 -126.55339,94.8937 -10.28877,0.7081 -11.51368,1.00659 -14.03207,3.41937 -11.96406,11.46229 -33.61109,15.2751 -51.75342,9.11562 -3.62594,-1.23104 -5.2306,-1.34901 -6.83956,-0.50282 -6.86101,3.60837 -20.35115,4.69307 -30.57594,2.45851 z m 24.71495,-12.08168 c 8.86957,-2.72539 10.80338,-2.66666 19.24473,0.58446 24.00517,9.2454 54.19347,-12.59054 64.82174,-46.88716 7.5213,-24.27065 7.06709,-51.80452 -1.10515,-66.99335 -11.07723,-20.58802 -28.41251,-23.91195 -55.70247,-10.68057 -14.2552,6.91154 -22.55328,7.27158 -33.5,1.45348 -15.02556,-7.98596 -26.37507,-10.79286 -35.68354,-8.82505 -26.381924,5.57712 -36.476325,37.36387 -25.737322,81.04549 5.219183,21.22938 22.428072,43.44336 38.578692,49.79905 11.52564,4.53563 15.7249,4.60835 29.08332,0.50365 z m 96.69985,-15.25905 c 55.68421,-12.82193 96.72986,-58.64068 112.91323,-126.04365 0.85835,-3.575 2.36729,-9.875 3.3532,-14 2.87224,-12.0173 2.5855,-44.96033 -0.47571,-54.65391 -6.31712,-20.00371 -15.89788,-31.736585 -29.73172,-36.410295 -9.96574,-3.36689 -23.97251,-17.98904 -30.14312,-31.46742 -2.88051,-6.29186 -3.46471,-6.53004 -6.28879,-2.56399 -2.79693,3.92792 -2.69967,4.40926 2.20683,10.92159 6.28555,8.34272 11.05291,15.95816 13.88466,22.17955 l 2.50591,5.50551 -0.75157,33.994485 c -0.51291,23.19934 -1.23396,36.5865 -2.27062,42.15688 -6.89699,37.06021 -23.70433,67.9141 -52.23466,95.88922 -7.69667,7.54689 -11.46345,11.98662 -11.87795,14 -2.41219,11.71686 -8.25694,26.71011 -13.70327,35.15235 -2.2013,3.41218 -3.75644,6.60187 -3.45588,7.08819 0.57851,0.93604 7.84404,0.14548 16.06946,-1.74851 z m 10.70754,-66.79365 c 5.18858,-5.57314 18.71251,-22.64405 20.7958,-26.25 0.79439,-1.375 2.90238,-4.89952 4.68442,-7.83227 12.66813,-20.84821 21.3387,-54.16366 21.36303,-82.08439 0.0103,-11.82968 -0.20149,-11.55506 -4.50917,5.84687 -8.26536,33.38995 -19.82955,54.20723 -43.67042,78.61332 l -7.85724,8.04352 1.01396,11.45648 c 0.55768,6.30106 1.01782,12.69397 1.02252,14.20647 0.0125,4.01589 2.09922,3.43277 7.1571,-2 z m -4.7386,-43.30168 c 13.5393,-14.35237 25.47364,-33.21866 31.2203,-49.3543 2.10514,-5.91086 1.11369,-5.42242 -5.25111,2.58697 -10.53708,13.25975 -23.21921,24.9266 -37.7663,34.74287 l -7.60674,5.13298 4.74695,6.92895 c 5.90587,8.62058 6.49074,8.61909 14.6569,-0.0375 z m -76.40994,-28.47961 c 13.77886,-2.07416 24.65441,-12.89665 29.04606,-28.90435 3.58595,-13.0709 1.54989,-14.0584 -13.62182,-6.60666 -13.55795,6.65913 -20.97181,15.38993 -23.51205,27.68854 -1.40634,6.80884 -0.80867,9.74221 1.83288,8.99577 0.96521,-0.27275 3.77993,-0.80073 6.25493,-1.1733 z"
       id="path1" />
  </g>
</svg>
