<?xml version="1.0" encoding="UTF-8"?>
<svg version="1.1" viewBox="0 0 405.65 479.74" xmlns="http://www.w3.org/2000/svg">
 <g transform="translate(66.609 -30.131)">
  <path d="m-38.243 508.07c-6.9212-3.2164-15.849-14.142-22.36-27.364-7.7841-15.806-7.9581-22.371-0.77456-29.233 2.7029-2.582 5.9506-4.4908 9.1612-5.3845 14.251-3.9668 37.929-15.101 43.918-20.651 1.5776-1.462 2.5575-3.8388 3.0454-7.3868 2.2648-16.467 15.101-35.354 39.474-58.084 26.612-24.817 34.194-33.389 47.313-53.494 7.4321-11.389 16.723-28.14 16.723-30.15 0-3.6954-17.8 0.41655-31.937 7.3777-16.387 8.0691-31.974 21.422-47.414 40.619-12.257 15.24-18.529 19.653-27.929 19.653-4.687 0-5.8767-0.44239-9.477-3.5242-6.5092-5.5716-8.6023-12.187-8.5348-26.976 0.04008-8.7823 0.60116-14.036 2.0924-19.593 7.1503-26.646 27.307-50.841 52.824-63.407l8.1226-4 1.3193-5.5c3.8789-16.171 18.446-30.763 37.434-37.499 4.9413-1.7529 15.517-3.4982 21-3.4656 11.827 0.0702 25.726 4.9457 36.095 12.662 1.7019 1.2665 3.5036 2.3027 4.0038 2.3027 0.50019 0 2.4147-6.8625 4.2545-15.25 6.4764-29.526 8.3769-42.33 10.13-68.25 1.4443-21.351 2.9842-34.83 4.7414-41.5 0.79689-3.025 1.8111-6.9564 2.2539-8.7366 1.4923-5.9998 7.1967-15.729 12.29-20.961 16.669-17.123 41.962-12.141 59.566 11.732 8.4693 11.486 16.494 30.525 20.007 47.466 3.3791 16.297 3.6594 19.898 3.6594 47 0 27.238-0.77651 38.368-4.0769 58.435-0.76299 4.639-1.1648 8.657-0.89303 8.9288 0.27182 0.27183 2.8513-0.23447 5.7321-1.1251 13.536-4.1848 23.78-4.4802 37.738-1.0883 30.631 7.4435 45.912 28.575 47.621 65.85 0.32781 7.15 0.1315 17.864-0.43626 23.809-1.3734 14.381-4.265 18.842-10.092 15.569-2.5553-1.4354-2.5932-1.624-2.5932-12.917 0-9.8128-0.30864-12.036-2.1468-15.46-4.7946-8.9337-11.666-13.617-23.714-16.162-10.405-2.1986-27.897-0.0115-34.509 4.3146l-2.3697 1.5506 2.4463 1.6485c14.546 9.8024 25.773 26.446 30.792 45.649 2.5848 9.8888 4.2419 28.351 3.5005 39-2.4301 34.902-19.225 62.32-43.235 70.581-10.078 3.4674-17.444 2.0525-23.667-4.5458-6.0916-6.459-6.6504-13.482-3.5832-45.035 1.8032-18.55 0.30747-38.733-4.0758-55-0.59281-2.2-1.3214-4.9988-1.619-6.2195-0.51712-2.1208-3.0425-4.9968-3.6643-4.173-0.16297 0.21587-1.0226 2.6425-1.9104 5.3925-3.9938 12.372-6.3079 17.957-13.258 32-19.61 39.623-50.727 76.203-83.58 98.253-25.002 16.78-51.376 24.284-75.193 21.393-5.6176-0.68181-13.296-2.1955-17.064-3.3637-6.0544-1.8773-7.1165-1.959-9.143-0.70318-1.261 0.78147-10.698 8.6208-20.97 17.421-10.272 8.8-20.101 16.788-21.841 17.75-4.0794 2.2561-10.143 2.1952-15.195-0.15276zm33.247-29.575c22.758-19.482 24.906-20.849 29.169-18.568 0.98128 0.52516 5.3392 1.9447 9.6843 3.1545 9.5551 2.6604 32.34 3.2439 41.4 1.0601 29.509-7.1122 63.067-31.603 90.231-65.853 7.2311-9.117 19.2-26.873 23.132-34.317 10.768-20.384 16.792-34.98 21.164-51.278 2.4179-9.0144 2.4322-9.2787 0.63431-11.722-3.1405-4.2684-10.968-9.5637-17.454-11.808-13.649-4.7225-24.341-4.7239-38.055-5e-3l-5.8473 2.012-4.1527-2.9212c-7.2962-5.1324-23.186-11.333-29.827-11.639-2.8773-0.13252-3.347 0.45331-9.5099 11.861-18.333 33.933-28.889 47.048-68.42 85-20.019 19.219-28.816 32.752-31.275 48.112-0.70809 4.4223-1.5897 8.5296-1.9591 9.1273-1.0062 1.628-13.152 9.4332-21.661 13.92-8.1127 4.2779-18.148 8.48-27.22 11.398-9.4848 3.0507-10.094 3.5646-9.4971 8.0136 1.5239 11.361 17.356 33.929 23.803 33.929 2.3328 0 7.4111-3.8545 25.661-19.477zm258.43-54.555c5.7396-1.5941 15.148-9.1623 20.212-16.258 9.6225-13.485 13.499-25.831 14.325-45.627 1.2235-29.32-5.8739-51.235-21.73-67.097-14.479-14.485-34.81-21.995-59.482-21.973-12.879 0.0115-18.5 0.7671-18.5 2.487 0 0.69549 1.8212 1.4818 4.1581 1.7952 2.2869 0.30674 7.4515 2.1854 11.477 4.1748 21.842 10.795 34.321 36.36 37.404 76.63 0.94578 12.352 0.55622 21.103-2.0326 45.655-1.9351 18.353 1.7816 23.655 14.17 20.214zm-255.43-94.32c1.7879-1.1814 7.5899-7.4564 12.893-13.944 15.495-18.956 30.985-32.248 48.44-41.566 14.524-7.7539 25.051-10.417 41.416-10.476 13.375-0.0486 20.784 1.416 32 6.3268 9.542 4.1777 9.964 3.8717 5.8898-4.2711-4.2823-8.5585-9.7821-15.082-17.806-21.122-8.1641-6.1444-14.353-9.1977-24.583-12.128-8.508-2.4367-29.272-2.5088-39.743-0.13809-34.472 7.8053-61.044 32.434-70.312 65.171-1.5245 5.3849-1.9618 24.153-0.67042 28.775 0.42649 1.5265 1.687 3.687 2.8012 4.8012 2.299 2.299 4.5317 1.9693 9.6741-1.4286zm160.05-56.042c4.3959-2.2688 17.601-6.4614 25.938-8.2354 4.7028-1.0007 13.388-1.7366 22.035-1.867 7.8498-0.11839 14.508-0.45044 14.795-0.73789 1.4006-1.4006 6.2793-16.244 11.426-34.766 2.3927-8.6098 5.5004-27.01 8.1072-48 1.8037-14.524 1.5234-54.431-0.46362-66-3.2322-18.819-5.7719-27.724-11.525-40.412-9.627-21.232-26.695-34.93-39.298-31.54-6.8915 1.854-9.5068 3.6287-13.876 9.4159-7.532 9.9761-11.108 25.307-12.955 55.535-1.0167 16.642-2.8754 33.957-4.9381 46-4.6615 27.217-10.16 49.702-17.418 71.227-2.5456 7.5501-4.6284 14.463-4.6284 15.363 0 0.89944 2.0759 4.3969 4.6131 7.7721 4.9456 6.579 10.189 16.498 12.365 23.388 1.4788 4.6835 1.8902 4.8853 5.8215 2.8563zm167.76-10.315c-2.7766-13.2-8.0469-23.028-16.193-30.199-14.994-13.199-43.617-15.903-60.572-5.7223-4.5842 2.7526-5.3808 3.7314-6.6157 8.1294-0.77219 2.75-3.1537 10.293-5.2923 16.761-2.1386 6.4686-3.8883 12.166-3.8883 12.66s3.8573 2.1542 8.5718 3.6884c6.7755 2.2049 8.9235 2.5471 10.25 1.6332 3.3294-2.2939 12.792-6.4126 18.178-7.9128 7.7553-2.1598 25.884-2.8977 32.866-1.3378 6.9637 1.5558 15.205 5.1358 19.424 8.4371 1.7528 1.3718 3.5403 2.1408 3.9721 1.709s0.11675-3.9628-0.70023-7.8467zm-196.92-42.758 3.7737-11.466-2.3712-2.524c-3.4658-3.6891-13.782-10.147-19.541-12.233-7.3083-2.6469-25.963-2.3769-33.29 0.48179-10.887 4.248-19.661 11.198-25.307 20.048-4.0799 6.3942-3.2995 7.1929 5.4055 5.5328 9.4082-1.7942 29.434-1.762 37.692 0.0607 10.052 2.2186 12.925 3.2443 21 7.4955 4.125 2.1718 7.8072 3.9761 8.1826 4.0094 0.37541 0.0333 2.3807-5.0991 4.4563-11.405z" fill="#808080" stroke="#000"/>
 </g>
</svg>
