<?xml version="1.0" encoding="UTF-8" standalone="no"?>
<!-- Created with Inkscape (http://www.inkscape.org/) -->

<svg
   width="100mm"
   height="100mm"
   viewBox="0 0 100 100"
   version="1.1"
   id="svg1"
   xml:space="preserve"
   sodipodi:docname="n10W.svg"
   inkscape:version="1.4.3 (0d15f750, 2025-12-25)"
   xmlns:inkscape="http://www.inkscape.org/namespaces/inkscape"
   xmlns:sodipodi="http://sodipodi.sourceforge.net/DTD/sodipodi-0.dtd"
   xmlns="http://www.w3.org/2000/svg"
   xmlns:svg="http://www.w3.org/2000/svg"><sodipodi:namedview
     id="namedview1"
     pagecolor="#ffffff"
     bordercolor="#000000"
     borderopacity="0.25"
     inkscape:showpageshadow="2"
     inkscape:pageopacity="0.0"
     inkscape:pagecheckerboard="0"
     inkscape:deskcolor="#d1d1d1"
     inkscape:document-units="mm"
     inkscape:zoom="2.3283333"
     inkscape:cx="188.76163"
     inkscape:cy="188.76163"
     inkscape:window-width="1171"
     inkscape:window-height="1186"
     inkscape:window-x="0"
     inkscape:window-y="30"
     inkscape:window-maximized="0"
     inkscape:current-layer="svg1" /><defs
     id="defs1" /><g
     id="layer1"><path
       style="fill:#ffffff;stroke-width:0;stroke-dasharray:none"
       d="m 28.934044,82.277998 -1.190625,-0.538325 -0.883081,-0.844927 -0.883081,-0.844926 -0.541134,-1.050551 -0.541134,-1.050552 -0.130853,-1.630153 -0.130853,-1.630153 0.650989,-1.421947 0.650989,-1.421947 0.868505,-0.868505 0.868505,-0.868505 0.967825,-0.493748 0.967826,-0.493747 1.241851,-0.186228 1.241852,-0.186227 0.127149,-0.434285 0.127149,-0.434285 0.310736,-2.116667 0.310735,-2.116666 -0.70743,-4.365625 -0.70743,-4.365625 L 30.630135,49.225863 29.707736,43.537321 28.77181,37.84878 27.835885,32.160238 27.58535,31.903019 27.334815,31.6458 l -2.308839,-1.197989 -2.308839,-1.19799 -0.250101,-0.728136 -0.250101,-0.728136 0.540828,-0.727072 0.540829,-0.727072 0.581538,-0.08622 0.581538,-0.08622 3.036282,1.521964 3.036282,1.521964 0.315819,0.380539 0.31582,0.380539 0.41647,2.146205 0.416471,2.146204 6.868136,0.998073 6.868137,0.998072 6.35,0.919889 6.35,0.919889 7.143749,1.054527 7.14375,1.054527 3.836459,0.566793 3.836458,0.566794 0.456266,0.40448 0.456266,0.40448 0.147597,0.465036 0.147596,0.465035 -1.317074,4.857883 -1.317075,4.857883 -1.597515,5.953124 -1.597514,5.953125 -0.451823,0.330729 -0.451822,0.33073 -7.291617,0.02022 -7.291618,0.02022 -1.719792,0.09185 -1.719791,0.09185 -10.209969,0.02022 -10.209969,0.02022 -0.348563,2.240662 -0.348563,2.240662 1.099678,1.19301 1.099678,1.193009 v 0.270495 0.270495 h 13.184457 13.184457 l 0.37107,-0.693351 0.371071,-0.693351 1.171929,-1.031574 1.17193,-1.031574 1.437695,-0.417949 1.437694,-0.417949 1.224993,0.183699 1.224992,0.183699 0.963067,0.49132 0.963068,0.49132 0.815643,0.686319 0.815644,0.686319 0.674894,1.42661 0.674895,1.42661 -0.0026,1.537738 -0.0026,1.537739 -0.626472,1.322916 -0.626473,1.322917 -0.892297,0.844926 -0.892296,0.844927 -1.190625,0.538325 -1.190625,0.538325 -1.529853,0.0058 -1.529852,0.0058 -0.917439,-0.383331 -0.91744,-0.383331 -0.922038,-0.703272 -0.922039,-0.703273 -0.576484,-0.932771 -0.576484,-0.932771 -0.30813,-0.896289 -0.308129,-0.896289 -12.48166,-0.0609 -12.481659,-0.0609 -0.405065,1.219542 -0.405065,1.219541 -0.968577,1.131564 -0.968576,1.131564 -1.33763,0.622872 -1.337629,0.622873 -1.5875,-0.0032 -1.5875,-0.0032 z m 5.079093,-4.1845 0.730634,-0.817721 0.172544,-0.687469 0.172543,-0.687468 -0.305921,-1.021075 -0.305922,-1.021075 -0.792773,-0.564504 -0.792773,-0.564505 h -1.197754 -1.197754 l -0.670766,0.439504 -0.670767,0.439503 -0.374775,0.896964 -0.374776,0.896964 v 0.630829 0.630829 l 0.603254,0.895168 0.603254,0.895169 0.653517,0.345539 0.653517,0.345538 1.182042,-0.117234 1.182041,-0.117234 z m 38.290034,0.645061 0.744933,-0.38522 0.432553,-0.911537 0.432552,-0.911538 -9.89e-4,-0.753763 -9.89e-4,-0.753764 -0.514019,-0.84301 -0.51402,-0.843009 -0.557278,-0.298246 -0.557278,-0.298246 -0.99843,-0.01378 -0.998431,-0.01378 -0.806904,0.417266 -0.806904,0.417266 -0.434904,1.086934 -0.434905,1.086933 0.266845,0.990984 0.266844,0.990985 0.598285,0.544404 0.598286,0.544403 0.396875,0.14508 0.396875,0.14508 0.873035,0.02089 0.873035,0.02089 z m -29.789653,-19.392384 -0.153099,-2.315104 -0.16475,-0.16457 -0.164751,-0.16457 -3.258563,-0.164862 -3.258564,-0.164863 0.126099,0.461724 0.126099,0.461724 0.320539,2.182812 0.320539,2.182813 h 3.129776 3.129775 z m 10.233025,0.214649 v -2.100455 l -1.124479,-0.13712 -1.124479,-0.13712 -2.182813,-0.118656 -2.182812,-0.118656 v 0.729919 0.729919 l 0.169983,1.626312 0.169984,1.626312 h 3.137308 3.137308 z M 62.925466,59.920678 63.111868,58.180077 62.9911,58.059308 62.870332,57.93854 59.660521,57.746539 56.45071,57.554538 v 2.053371 2.05337 h 3.144176 3.144177 z m 10.235145,0.180237 0.418079,-1.560364 -3.162369,-0.190007 -3.16237,-0.190007 -0.208462,0.229017 -0.208463,0.229017 -0.168386,1.521354 -0.168386,1.521354 h 3.121139 3.121139 z m 1.836187,-6.895507 0.410783,-1.576705 -0.68104,-0.131779 -0.68104,-0.13178 -2.997009,-0.299541 -2.997009,-0.299542 -0.08575,0.0898 -0.08575,0.0898 -0.188062,1.775204 -0.188061,1.775204 2.344778,0.08862 2.344778,0.08862 1.196298,0.05441 1.196298,0.05441 z m -11.303595,0.584517 0.134402,-0.463021 0.178497,-1.521354 0.178497,-1.521354 h -0.43779 -0.437789 l -2.569259,-0.26375 -2.56926,-0.26375 -0.859895,-0.116491 -0.859896,-0.11649 v 2.077458 2.077458 l 1.918229,0.158635 1.918229,0.158636 1.322917,0.08083 1.322916,0.08083 0.3129,0.04769 0.312899,0.04769 z m -10.94666,-2.435407 v -2.104677 l -0.859896,-0.136733 -0.859895,-0.136733 -2.752768,-0.27544 -2.752768,-0.275439 -0.04126,0.06945 -0.04126,0.06945 0.108689,2.302696 0.108688,2.302695 1.494713,0.09467 1.494714,0.09467 2.05052,0.05003 2.050521,0.05003 z m -10.849797,0.847907 -0.0019,-0.727604 -0.16454,-1.741705 -0.16454,-1.741704 -3.56119,-0.32947 -3.561189,-0.329469 -0.151483,0.151483 -0.151483,0.151482 0.331104,1.919692 0.331103,1.919691 0.134414,0.584651 0.134414,0.584651 2.024513,0.08971 2.024514,0.08971 1.389062,0.05325 1.389063,0.05325 z m 34.963293,-5.981303 0.402403,-1.681824 -4.099858,-0.56724 -4.099857,-0.56724 -0.06872,0.06872 -0.06872,0.06872 -0.23435,1.749133 -0.234351,1.749133 3.852794,0.394771 3.852795,0.394771 0.147734,0.03644 0.147734,0.03644 z m -12.094441,-0.236405 0.122888,-0.595313 0.161632,-1.247991 0.161632,-1.247992 -0.610208,-0.130291 -0.610207,-0.130292 -2.910417,-0.412595 -2.910417,-0.412594 -0.859895,-0.139341 -0.859896,-0.13934 v 2.128656 2.128655 l 0.463021,0.01738 0.46302,0.01738 2.910417,0.34761 2.910417,0.347611 0.722563,0.03189 0.722563,0.03189 z M 52.746543,43.152435 v -2.104677 l -0.859896,-0.143262 -0.859895,-0.143262 -2.996877,-0.421677 -2.996876,-0.421678 -0.137294,0.137294 -0.137293,0.137294 0.186735,2.241728 0.186734,2.241728 2.682852,0.251629 2.682852,0.25163 1.124479,0.03897 1.124479,0.03897 z m -11.528121,0.05416 -0.100684,-0.992188 -0.151046,-1.467613 -0.151046,-1.467612 -4.014485,-0.568946 -4.014486,-0.568946 -0.08133,0.08134 -0.08133,0.08133 0.451921,2.550537 0.451921,2.550536 0.415077,0.01995 0.415077,0.01995 3.042708,0.345875 3.042709,0.345874 0.437844,0.03105 0.437843,0.03105 z"
       id="path1" /></g></svg>
