<?xml version="1.0" encoding="UTF-8" standalone="no"?>
<!-- Created with Inkscape (http://www.inkscape.org/) -->

<svg
   width="100mm"
   height="100mm"
   viewBox="0 0 99.999999 100"
   version="1.1"
   id="svg1"
   xml:space="preserve"
   sodipodi:docname="n1 copy.svg"
   inkscape:version="1.4.3 (0d15f750, 2025-12-25)"
   xmlns:inkscape="http://www.inkscape.org/namespaces/inkscape"
   xmlns:sodipodi="http://sodipodi.sourceforge.net/DTD/sodipodi-0.dtd"
   xmlns="http://www.w3.org/2000/svg"
   xmlns:svg="http://www.w3.org/2000/svg"><sodipodi:namedview
     id="namedview1"
     pagecolor="#ffffff"
     bordercolor="#000000"
     borderopacity="0.25"
     inkscape:showpageshadow="2"
     inkscape:pageopacity="0.0"
     inkscape:pagecheckerboard="0"
     inkscape:deskcolor="#d1d1d1"
     inkscape:document-units="mm"
     inkscape:zoom="2.3283333"
     inkscape:cx="188.76163"
     inkscape:cy="188.76163"
     inkscape:window-width="1171"
     inkscape:window-height="1186"
     inkscape:window-x="0"
     inkscape:window-y="30"
     inkscape:window-maximized="0"
     inkscape:current-layer="svg1" /><defs
     id="defs1" /><g
     id="layer1"
     transform="matrix(0.86884295,0,0,0.98917538,-40.680235,-108.67286)"><path
       style="fill:#ffffff;stroke:#000000;stroke-width:0;stroke-dasharray:none;stroke-opacity:1"
       d="m 99.631844,195.24791 -1.26167,-0.22451 -1.18388,-0.5731 -1.18389,-0.57311 -0.51526,-0.72362 -0.51526,-0.72362 -0.2923,-1.1719 -0.2923,-1.1719 0.0781,-17.06563 0.0781,-17.06562 0.55014,-1.33707 0.55013,-1.33706 2.08339,-3.16085 2.08339,-3.16086 0.871356,-1.71979 0.87136,-1.71979 0.39772,-1.57694 0.39772,-1.57694 v -1.49127 -1.49126 l -0.42272,-0.84735 -0.42271,-0.84736 0.092,-2.36123 0.092,-2.36123 0.60266,-0.60238 0.60267,-0.60237 h 4.35092 4.35093 l 0.60266,0.60237 0.60266,0.60238 0.092,2.36123 0.092,2.36123 -0.42272,0.84736 -0.42272,0.84735 v 1.49126 1.49127 l 0.39772,1.57694 0.39773,1.57694 0.87134,1.71979 0.87136,1.71979 2.08339,3.16086 2.08339,3.16085 0.55014,1.33706 0.55013,1.33707 0.0843,16.93333 0.0843,16.93333 -0.30462,1.40215 -0.30462,1.40214 -0.87979,0.8798 -0.87979,0.87979 -1.28112,0.4735 -1.28112,0.47351 -7.14374,0.07 -7.14375,0.07 z m 15.442876,-2.58198 1.21664,-0.5422 0.56929,-0.72374 0.5693,-0.72375 v -8.03411 -8.03411 H 107.2435 97.057044 v 8.03411 8.03411 l 0.57359,0.7292 0.57359,0.72921 0.94777,0.41218 0.947756,0.41219 1.19063,0.19733 1.19062,0.19733 5.68854,-0.0728 5.68854,-0.0728 z m 2.35523,-25.86312 v -5.68854 H 107.2435 97.057044 v 5.68854 5.68855 h 10.186456 10.18645 z m -0.006,-8.92968 -0.006,-1.12448 -0.60679,-1.45521 -0.60678,-1.45521 -1.76565,-2.71449 -1.76563,-2.7145 -0.83289,-1.64994 -0.83289,-1.64995 -0.47997,-1.39506 -0.47998,-1.39507 -0.16372,-1.51654 -0.16372,-1.51653 -0.0768,-0.79375 -0.0768,-0.79375 h -2.32229 -2.32229 l -0.0768,0.79375 -0.0768,0.79375 -0.16373,1.51653 -0.16372,1.51654 -0.47997,1.39507 -0.47998,1.39506 -0.83289,1.64995 -0.83288,1.64994 -1.76565,2.7145 -1.765636,2.71449 -0.60679,1.45521 -0.60679,1.45521 -0.006,1.12448 -0.006,1.12448 h 10.186456 10.18645 z m -7.24916,-22.33566 0.37628,-0.1444 v -1.80594 -1.80595 l -0.46302,-0.12782 -0.46302,-0.12782 h -2.38125 -2.38125 l -0.46302,0.12782 -0.46302,0.12782 v 1.81221 1.8122 l 0.33073,0.12978 0.33073,0.12977 2.60027,0.008 2.60028,0.008 z"
       id="path1" /></g></svg>
