<?xml version="1.0" encoding="UTF-8" standalone="no"?>
<!-- Created with Inkscape (http://www.inkscape.org/) -->

<svg
   width="100mm"
   height="100mm"
   viewBox="0 0 100 100"
   version="1.1"
   id="svg1"
   xml:space="preserve"
   sodipodi:docname="n2W.svg"
   inkscape:version="1.4.3 (0d15f750, 2025-12-25)"
   xmlns:inkscape="http://www.inkscape.org/namespaces/inkscape"
   xmlns:sodipodi="http://sodipodi.sourceforge.net/DTD/sodipodi-0.dtd"
   xmlns="http://www.w3.org/2000/svg"
   xmlns:svg="http://www.w3.org/2000/svg"><sodipodi:namedview
     id="namedview1"
     pagecolor="#ffffff"
     bordercolor="#000000"
     borderopacity="0.25"
     inkscape:showpageshadow="2"
     inkscape:pageopacity="0.0"
     inkscape:pagecheckerboard="0"
     inkscape:deskcolor="#d1d1d1"
     inkscape:document-units="mm"
     inkscape:zoom="2.3283333"
     inkscape:cx="248.89048"
     inkscape:cy="188.76163"
     inkscape:window-width="1171"
     inkscape:window-height="1186"
     inkscape:window-x="0"
     inkscape:window-y="30"
     inkscape:window-maximized="0"
     inkscape:current-layer="svg1" /><defs
     id="defs1" /><g
     id="layer1"><path
       style="fill:#ffffff;stroke-width:0;stroke-dasharray:none;stroke:#000000;stroke-opacity:1"
       d="m 43.583742,84.952645 -3.115206,-0.2003 -1.757688,-0.902714 -1.757688,-0.902713 -0.551064,-1.058334 -0.551064,-1.058333 v -7.408333 -7.408333 l 0.577485,-1.250101 0.577484,-1.250101 0.877724,-1.097202 0.877724,-1.097201 1.455208,-0.971471 1.455208,-0.97147 1.287184,-0.649977 1.287184,-0.649977 1.12984,-1.085091 1.129841,-1.085091 0.294955,-1.375328 0.294955,-1.375328 v -0.99474 -0.994741 l 0.38846,-0.51359 0.38846,-0.513591 -0.01247,-2.513541 -0.01247,-2.513542 -0.134001,0.332378 -0.134002,0.332377 -0.248541,-0.153606 -0.24854,-0.153607 0.0727,0.249378 0.0727,0.249378 -1.090509,1.205158 -1.090509,1.205159 -1.404909,0.417213 -1.404909,0.417214 h -0.63083 -0.63083 L 40.463846,48.938651 39.952074,48.664759 V 47.9746 47.284442 l 1.368496,-2.273823 1.368497,-2.273824 1.012753,-1.980334 1.012754,-1.980335 v -0.185751 -0.185751 l -3.697572,-0.08614 -3.697573,-0.08615 -0.600201,-0.600956 -0.600202,-0.600957 -0.09415,-2.073298 -0.09415,-2.073299 0.440751,-0.852317 0.44075,-0.852317 0.89997,-0.376032 0.899971,-0.376032 7.350685,3.62e-4 7.350686,3.62e-4 2.147762,0.377986 2.147763,0.377987 1.759121,0.797624 1.759122,0.797624 1.541358,1.470206 1.541358,1.470207 0.685948,1.260313 0.685949,1.260313 0.18151,1.368294 0.181511,1.368293 -0.721632,0.668786 -0.721632,0.668785 -2.397667,0.0757 -2.397667,0.0757 -0.0942,0.28453 -0.0942,0.28453 0.800399,0.837541 0.800399,0.837541 v 2.101245 l 0,2.101245 0.555649,0.176356 0.555649,0.176356 0.475694,1.098245 0.475693,1.098244 0.717405,3.175 0.717405,3.175 0.389772,0.879789 0.389773,0.879789 0.259172,2.559794 0.259172,2.559794 -0.0051,6.217708 -0.0051,6.217708 -0.01134,2.992178 -0.01134,2.992177 -0.264584,-0.163521 -0.264583,-0.163522 v 0.560397 0.560396 L 65.08749,83.740668 64.822906,83.577146 v 0.41249 0.41249 l -0.198437,-0.04674 -0.198438,-0.04674 -1.058333,0.300438 -1.058333,0.300438 -7.805208,0.121712 -7.805208,0.121712 z m 19.052746,-2.351933 0.591707,-0.330011 0.06975,-8.657725 0.06975,-8.657725 -0.205604,-1.852083 -0.205604,-1.852083 -0.553231,-2.248958 -0.55323,-2.248959 -0.514417,-2.38125 -0.514416,-2.38125 -0.56702,-0.483282 -0.56702,-0.483283 -4.818956,0.08641 -4.818955,0.08641 -0.14762,0.148166 -0.147619,0.148166 -0.274169,1.933139 -0.274168,1.933139 -0.187587,0.299945 -0.187587,0.299945 -0.05309,0.35059 -0.05309,0.350591 -0.615809,0.915407 -0.615808,0.915407 -1.719792,1.148763 -1.719792,1.148763 -1.300533,0.730893 -1.300533,0.730894 -1.096399,1.096398 -1.096398,1.096399 -0.381193,1.314197 -0.381194,1.314198 v 6.482292 6.482291 l 0.480594,0.880739 0.480594,0.880739 0.962018,0.401957 0.962018,0.401957 2.261555,0.21534 2.261555,0.21534 8.069791,-0.05092 8.069791,-0.05092 z m -19.840149,-3.776032 -0.463027,-0.269688 -0.463015,-0.846746 -0.463015,-0.846745 0.0058,-4.101041 0.0058,-4.101042 0.34763,-0.998909 0.347631,-0.998909 0.658578,-0.782675 0.658577,-0.782675 1.351083,-0.401229 1.351082,-0.401228 h 5.85797 l 5.85797,0 1.223911,0.417029 1.223911,0.417028 0.568192,1.173729 0.568193,1.173729 -0.09132,4.837562 -0.09133,4.837563 -0.476858,0.727239 -0.476858,0.72724 -0.664845,0.252774 -0.664845,0.252773 -7.85413,-0.008 -7.85413,-0.008 z m 15.883309,-2.293908 0.190134,-0.463021 v -4.489439 -4.48944 l -0.661459,-0.335306 -0.661458,-0.335305 -5.291667,0.01135 -5.291666,0.01135 -1.029816,0.18319 -1.029815,0.18319 -0.557685,0.745941 -0.557684,0.745942 -0.08488,3.619683 -0.08488,3.619683 0.276766,0.727605 0.276765,0.727604 h 7.158602 7.158602 z M 54.504157,47.085177 v -1.862784 l -2.182813,0.07685 -2.182812,0.07685 -0.07823,1.785938 -0.07823,1.785937 h 2.261047 2.261047 z m 4.337317,1.444269 0.160599,-0.418515 V 47.356045 46.601159 L 58.744039,45.922476 58.486004,45.243794 H 57.28883 56.091657 v 1.852083 1.852083 h 1.294609 1.294609 z m -15.386696,-1.632007 0.598337,-0.46302 1.466026,-1.455209 1.466026,-1.455208 0.584495,-1.208015 0.584495,-1.208014 v -1.078782 -1.078782 l -0.418515,-0.160599 -0.418514,-0.1606 h -0.206812 -0.206811 l -0.739237,1.653646 -0.739238,1.653646 -1.413561,2.53634 -1.413562,2.53634 v 0.175639 0.175639 h 0.129267 0.129267 z M 57.14999,42.119363 v -0.74318 l 0.37527,-0.51359 0.37527,-0.513591 2.553491,-0.09231 2.553491,-0.09231 0.134856,-0.35143 0.134857,-0.351431 -0.509351,-1.143758 -0.50935,-1.143759 -1.165205,-1.166997 -1.165204,-1.166997 -1.165462,-0.744371 -1.165461,-0.744372 -1.480372,-0.447276 -1.480372,-0.447277 -5.423958,-0.02261 -5.423958,-0.0226 -0.07745,1.904119 -0.07745,1.904119 0.920181,0.172627 0.92018,0.172627 0.27309,-0.168779 0.27309,-0.168778 1.397723,0.184344 1.397724,0.184345 0.879529,0.877425 0.87953,0.877426 -0.08578,2.256401 -0.08578,2.256401 3.373438,-6.18e-4 3.373437,-6.17e-4 z M 41.407282,34.392254 v -1.980752 l -1.240068,-0.07996 -1.240069,-0.07996 -0.294838,0.55091 -0.294837,0.550909 0.0797,1.381135 0.0797,1.381134 1.058334,0.163493 1.058333,0.163494 0.396875,-0.03482 0.396875,-0.03483 z"
       id="path1" /></g></svg>
