<?xml version="1.0" encoding="UTF-8" standalone="no"?>
<!-- Created with Inkscape (http://www.inkscape.org/) -->

<svg
   width="100mm"
   height="100mm"
   viewBox="0 0 100 100"
   version="1.1"
   id="svg1"
   xml:space="preserve"
   sodipodi:docname="n3W.svg"
   inkscape:version="1.4.3 (0d15f750, 2025-12-25)"
   xmlns:inkscape="http://www.inkscape.org/namespaces/inkscape"
   xmlns:sodipodi="http://sodipodi.sourceforge.net/DTD/sodipodi-0.dtd"
   xmlns="http://www.w3.org/2000/svg"
   xmlns:svg="http://www.w3.org/2000/svg"><sodipodi:namedview
     id="namedview1"
     pagecolor="#ffffff"
     bordercolor="#000000"
     borderopacity="0.25"
     inkscape:showpageshadow="2"
     inkscape:pageopacity="0.0"
     inkscape:pagecheckerboard="0"
     inkscape:deskcolor="#d1d1d1"
     inkscape:document-units="mm"
     inkscape:zoom="2.3283333"
     inkscape:cx="188.76163"
     inkscape:cy="188.76163"
     inkscape:window-width="1171"
     inkscape:window-height="1186"
     inkscape:window-x="0"
     inkscape:window-y="30"
     inkscape:window-maximized="0"
     inkscape:current-layer="svg1" /><defs
     id="defs1" /><g
     id="layer1"><path
       style="fill:#ffffff;stroke:#000000;stroke-width:0;stroke-dasharray:none;stroke-opacity:1"
       d="M 60.055612,81.729776 55.900106,81.530892 54.234779,81.105471 52.569451,80.68005 51.556435,80.011309 50.543419,79.342568 50.167373,78.442562 49.791326,77.542556 V 74.359058 71.17556 h -0.257789 -0.257788 l -0.391193,0.756483 -0.391192,0.756482 -0.806227,0.33395 -0.806227,0.333951 v 2.574606 2.574607 l -0.604475,0.899023 -0.604474,0.899023 -0.91688,0.315796 -0.91688,0.315795 -3.96875,0.01394 -3.96875,0.01395 -0.86649,-0.5283 -0.866491,-0.528299 -0.257988,-0.678561 -0.257989,-0.678561 v -2.760901 -2.7609 h -0.2244 -0.2244 l -0.431294,0.992187 -0.431295,0.992188 -0.534479,1.469339 -0.534479,1.46934 -0.620885,0.841561 -0.620884,0.841561 -0.750072,0.590007 -0.750072,0.590006 -1.6837,0.10721 -1.683701,0.10721 -1.193483,-0.455795 -1.193483,-0.455796 -0.697985,-1.054725 -0.697984,-1.054725 0.0033,-1.233013 0.0033,-1.233014 0.596331,-1.5875 0.59633,-1.5875 1.078619,-1.956931 1.07862,-1.956931 1.425607,-2.408694 1.425606,-2.408694 -0.128969,-0.529167 -0.12897,-0.529166 -0.422897,-2.778125 -0.422897,-2.778125 -0.52475,-3.439584 -0.52475,-3.439583 -0.637876,-4.894792 -0.637876,-4.894791 -0.579563,-5.726137 -0.579563,-5.726136 0.179459,-0.956595 0.179458,-0.956595 0.621762,-0.407394 0.621762,-0.407395 13.530788,0.01278 13.530787,0.01278 0.631955,0.414073 0.631955,0.414073 0.240397,0.710146 0.240396,0.710146 -0.10166,2.248958 -0.10166,2.248958 -0.637865,6.35 -0.637865,6.35 -0.413739,3.704167 -0.413738,3.704167 -0.398169,3.247653 -0.398168,3.247653 -0.162489,0.853389 -0.162488,0.853388 0.633425,-0.564363 0.633425,-0.564364 0.851032,-0.430034 0.851031,-0.430035 1.794802,-0.408203 1.794802,-0.408203 6.01558,-0.154614 6.015581,-0.154615 3.377128,0.322398 3.377127,0.322398 1.729823,0.383366 1.729824,0.383366 0.865785,0.526516 0.865786,0.526516 0.39463,0.944483 0.39463,0.944483 -0.05148,3.362096 -0.05149,3.362096 0.302392,0.565025 0.302393,0.565025 -9.89e-4,3.787707 -9.9e-4,3.787706 -0.518638,0.850605 -0.518638,0.850605 -1.26631,0.637841 -1.26631,0.637841 -1.398142,0.296646 -1.398142,0.296646 -2.173733,0.130626 -2.173733,0.130626 -3.439583,0.08739 -3.439584,0.08739 z m 13.843919,-2.617754 2.28008,-0.261279 0.900291,-0.376166 0.900292,-0.376165 0.523795,-0.578613 0.523795,-0.578614 v -2.991908 -2.991908 l -0.170762,-0.171909 -0.170762,-0.171909 -2.078196,0.454043 -2.078197,0.454044 -7.672916,0.06779 -7.672917,0.06779 -3.373437,-0.451601 -3.373438,-0.4516 v 2.839377 2.839377 l 0.253217,0.66601 0.253217,0.666011 0.796412,0.41184 0.796412,0.411841 2.191517,0.367652 2.191517,0.367652 6.35,0.02476 6.349999,0.02476 z M 28.612566,77.0201 l 0.522265,-1.023723 1.043947,-2.608846 1.043947,-2.608846 2.798366,-5.780226 2.798366,-5.780225 0.897377,-1.495816 0.897377,-1.495816 0.924925,-1.719792 0.924925,-1.719792 0.88901,-1.5875 0.88901,-1.5875 0.636574,-1.455208 0.636574,-1.455208 0.890444,-2.552634 0.890443,-2.552634 0.161419,-1.177675 0.161418,-1.177675 -0.385852,-0.148065 -0.385853,-0.148066 -2.0424,-0.343183 -2.0424,-0.343184 -0.446498,0.279829 -0.446499,0.279829 -0.08455,0.568291 -0.08455,0.568292 h 1.981137 1.981137 l 0.418515,0.160599 0.418515,0.160599 v 0.487201 0.487201 l -0.688893,2.196471 -0.688892,2.19647 -1.156963,2.248959 -1.156963,2.248958 -1.546168,2.38125 -1.546168,2.38125 -2.106825,2.645833 -2.106825,2.645834 -1.625405,2.248958 -1.625405,2.248958 -1.748778,2.778125 -1.748778,2.778126 -1.209774,2.413135 -1.209774,2.413135 -0.124419,1.15874 -0.124419,1.15874 0.364421,0.485553 0.364422,0.485553 0.913116,0.199334 0.913115,0.199334 0.725008,-0.35961 0.725009,-0.35961 z m 12.315219,-0.662923 v -2.359008 l -0.727604,-0.09744 -0.727605,-0.09744 v 1.565708 1.565707 l -0.648202,0.123912 -0.648203,0.123911 -0.145547,-0.37929 -0.145548,-0.37929 V 75.12267 73.821393 h -0.926041 -0.926042 v 2.001769 2.001769 l 0.27949,0.522232 0.27949,0.522232 2.167906,-0.07661 2.167906,-0.07661 z m 3.297982,1.714944 0.273893,-0.511773 v -1.869477 -1.869477 h -0.765443 -0.765442 l -0.114117,0.330729 -0.114117,0.330729 0.114728,2.050521 0.114728,2.050521 h 0.490939 0.490939 z m 1.257094,-6.847784 0.586326,-0.322359 0.254791,-0.987688 0.254791,-0.987688 0.168533,-2.38125 0.168534,-2.38125 0.62696,-5.027084 0.62696,-5.027083 0.684095,-5.688542 0.684095,-5.688541 0.486215,-4.630209 0.486215,-4.630208 L 50.39982,33.273997 50.289263,33.07556 H 38.229951 26.170639 l 0.185468,2.315104 0.185469,2.315104 0.656565,5.027084 0.656565,5.027083 0.931256,6.073341 0.931255,6.073341 0.181326,0.318894 0.181325,0.318895 3.042709,-3.697184 3.042708,-3.697184 1.256771,-1.83957 1.25677,-1.839571 v -0.227095 -0.227096 l -0.850407,-0.170082 -0.850407,-0.170081 -0.882847,-0.590596 -0.882846,-0.590595 0.115802,-1.455209 0.115803,-1.455208 1.177279,-3.283708 1.177279,-3.283708 0.761907,-0.655364 0.761906,-0.655365 3.051703,0.173184 3.051703,0.173185 0.79375,0.207462 0.79375,0.207463 0.46261,0.912592 0.462609,0.912592 4.12e-4,0.81327 4.11e-4,0.81327 -0.632656,2.097147 -0.632657,2.097147 -0.79488,1.984375 -0.794881,1.984375 -1.048362,2.116666 -1.048361,2.116667 -4.53556,8.968057 -4.535559,8.968057 v 0.16669 0.16669 l 5.490104,-0.01949 5.490104,-0.01949 z m 30.621728,-2.256531 1.574722,-0.39342 0.343507,-0.469775 0.343507,-0.469774 v -2.30904 -2.309041 l -0.164924,-0.429785 -0.164924,-0.429785 -0.993748,-0.506973 -0.993748,-0.506972 -1.685599,-0.303476 -1.685598,-0.303477 -6.746875,-0.132286 -6.746875,-0.132287 -2.427284,0.421348 -2.427285,0.421349 -0.652501,0.297299 -0.652501,0.297299 -0.303268,0.566662 -0.303269,0.566662 0.07576,2.89849 0.07576,2.898489 1.058333,0.221432 1.058334,0.221432 1.852083,0.236142 1.852083,0.236142 8.069792,-0.09662 8.069791,-0.09662 z m -19.28626,-3.657284 -2.101121,-0.239575 -0.346275,-0.287382 -0.346274,-0.287382 v -0.364478 -0.364478 h 7.366266 7.366266 l 4.010817,-0.173602 4.010817,-0.173601 v 0.560278 0.560279 l -0.992187,0.259135 -0.992188,0.259135 -2.069665,0.28023 -2.069666,0.280229 -5.867834,-0.03461 -5.867834,-0.03461 z m -16.546696,-18.086148 0.334683,-0.403268 -0.103849,-0.08201 -0.103849,-0.08201 -1.574722,-0.436169 -1.574723,-0.436168 -0.207163,0.326138 -0.207164,0.326138 -0.0041,0.189988 -0.0041,0.189987 0.727604,0.394732 0.727604,0.394732 0.827499,0.01059 0.827499,0.01059 z m 1.068229,-2.270969 0.298403,-0.557573 -0.222948,-0.204076 -0.222949,-0.204076 -1.653646,-0.177532 -1.653646,-0.177531 v 0.245325 0.245324 l 0.33073,0.266428 0.330729,0.266428 0.859896,0.183867 0.859895,0.183866 v 0.243561 0.243561 h 0.387566 0.387566 z m 1.153343,-2.787589 0.166827,-0.434745 -0.117617,-0.117616 -0.117616,-0.117617 -1.54991,-0.140541 -1.54991,-0.140541 -0.352875,0.425188 -0.352875,0.425188 0.360528,0.11446 0.360528,0.11446 0.396875,0.132366 0.396875,0.132366 1.096171,0.02089 1.096172,0.02089 z M 27.670311,30.804962 27.83091,30.386447 v -1.184198 -1.184198 l -1.124479,0.08136 -1.124479,0.08136 -0.07935,1.521354 -0.07935,1.521355 h 1.043229 1.04323 z m 4.129349,-1.168985 v -1.5875 H 30.609035 29.41841 v 1.5875 1.5875 h 1.190625 1.190625 z m 3.96875,0.418514 v -1.168985 l 0.160599,-0.418515 0.160599,-0.418514 H 34.80453 33.519452 v 1.5875 1.5875 h 1.124479 1.124479 z m 3.96875,-0.418514 v -1.5875 h -1.058334 -1.058333 v 1.5875 1.5875 h 1.058333 1.058334 z m 3.934024,0.151674 0.04692,-1.435825 -0.204534,-0.126002 -0.204534,-0.126001 -1.058334,-0.09142 -1.058333,-0.09142 -0.06401,1.653246 -0.06401,1.653247 h 1.279961 1.27996 z m 3.738892,-0.151674 v -1.5875 h -1.190625 -1.190625 v 1.5875 1.5875 h 1.190625 1.190625 z m 3.654189,0.311175 0.08232,-1.144033 -0.313149,-0.377321 -0.313149,-0.377321 -0.695207,1.1e-4 -0.695207,1.1e-4 -0.06887,1.603524 -0.06886,1.603523 0.994906,-0.08228 0.994906,-0.08228 z"
       id="path1"
       sodipodi:nodetypes="cccccccccccccccccccccccccccccccccccccccccccccccccccccccccccccccccccccccccccccccccccccccccccccccccccccccccccccccccccccccccccccccccccccccccccccccccccccccccccccccccccccccccccccccccccccccccccccccccccccccccccccccccccccccccccccccccccccccccccccccccccccccccccccccccccccccccccccccccccccccccccccccccccccccccccccccccccccccccccccccccccccccccccccccccccccccccccccccccccccccccccccccccccccccccccccccccccccccccccccccccccccccccccccccccccccccccccccccccccccccccccccccccccccccccccc" /></g></svg>
