<?xml version="1.0" encoding="UTF-8" standalone="no"?>
<!-- Created with Inkscape (http://www.inkscape.org/) -->

<svg
   width="100mm"
   height="100mm"
   viewBox="0 0 100 100"
   version="1.1"
   id="svg1"
   xml:space="preserve"
   xmlns:xlink="http://www.w3.org/1999/xlink"
   xmlns="http://www.w3.org/2000/svg"
   xmlns:svg="http://www.w3.org/2000/svg"><defs
     id="defs1"><linearGradient
       id="swatch1"><stop
         style="stop-color:#ffffff;stop-opacity:1;"
         offset="0"
         id="stop1" /></linearGradient><linearGradient
       xlink:href="#swatch1"
       id="linearGradient1"
       x1="38.208406"
       y1="55.550628"
       x2="63.110484"
       y2="55.550628"
       gradientUnits="userSpaceOnUse" /></defs><g
     id="layer1"><path
       style="fill:#ffffff;stroke:url(#linearGradient1);stroke-opacity:1;stroke-width:0.5;stroke-dasharray:none"
       d="m 47.080375,75.216731 -1.477582,-1.682988 v -0.665865 -0.665864 l -0.413593,-0.343252 -0.413594,-0.343253 0.409171,-0.228983 0.409171,-0.228983 -0.310388,-0.497011 -0.310388,-0.49701 0.327658,-0.394804 0.327659,-0.394804 -0.252336,-0.155952 -0.252336,-0.155952 0.05102,-0.992596 0.05102,-0.992595 0.21619,-0.349803 0.216189,-0.349802 -0.544258,-0.579337 -0.544259,-0.579337 -0.409503,-0.980078 -0.409503,-0.980079 -0.0015,-1.000686 -0.0015,-1.000685 -0.27498,-0.990143 -0.274979,-0.990142 -1.65602,-3.110899 -1.65602,-3.110899 -0.451431,-1.136472 -0.451431,-1.136472 -0.260972,-1.84009 -0.260972,-1.840091 0.267984,-1.889528 0.267983,-1.889528 0.807556,-1.692081 0.807555,-1.692081 1.590029,-1.699746 1.590029,-1.699746 1.557741,-0.778412 1.557741,-0.778412 1.89394,-0.338466 1.89394,-0.338466 1.857671,0.318555 1.857671,0.318555 1.817298,0.954963 1.817297,0.954963 1.402837,1.515231 1.402837,1.515231 0.718181,1.516821 0.718181,1.516821 0.286019,1.333664 0.28602,1.333664 -0.105519,2.62712 -0.105519,2.62712 -2.31921,4.503939 -2.319211,4.503939 -0.246331,2.160752 -0.246332,2.160753 -0.772823,1.096638 -0.772823,1.096639 0.28121,0.28121 0.28121,0.28121 -0.338683,0.408089 -0.338684,0.408088 0.329377,0.396875 0.329377,0.396875 -0.290684,0.350254 -0.290685,0.350254 0.282799,0.282799 0.282799,0.282799 -0.276711,0.517039 -0.276711,0.517039 0.305117,0.305117 0.305116,0.305116 -0.3175,0.3175 -0.3175,0.3175 v 0.576333 0.576333 l -1.744565,1.884292 -1.744566,1.884292 h -1.937227 -1.937228 z m 6.383255,-0.962844 0.138381,-0.529167 h 0.357712 0.357712 L 54.190523,73.393991 54.06361,73.063262 h -3.56895 -3.56895 v 0.330729 0.330729 l 0.529167,0.529167 0.529166,0.529166 h 2.670604 2.670603 z m -0.361371,-2.289167 2.819284,-0.172499 v -0.356667 -0.356667 h -4.74086 -4.74086 l -0.418515,0.160599 -0.418515,0.160599 v 0.368567 0.368568 h 2.340091 2.340091 z m 2.819284,-2.117615 v -0.438031 l -3.770312,0.17248 -3.770313,0.17248 -1.389062,9.68e-4 -1.389063,9.68e-4 v 0.264583 0.264584 h 5.159375 5.159375 z m -0.132292,-1.385644 v -0.368468 l -1.322916,-0.01243 -1.322917,-0.01243 -3.770312,0.05017 -3.770313,0.05017 v 0.410459 0.410459 l 5.093229,-0.07973 5.093229,-0.07973 z m 0.01425,-1.374378 0.17777,-0.287637 -0.262754,-0.262754 -0.262753,-0.262753 -4.926484,0.191128 -4.926485,0.191129 v 0.359262 0.359262 h 5.011469 5.011468 z m -0.08039,-2.95728 0.46302,-1.126268 v -0.801527 -0.801527 l 0.390924,-1.500858 0.390924,-1.500857 1.974829,-3.780252 1.974829,-3.780252 0.330021,-1.808769 0.330021,-1.808768 -0.320856,-1.895398 -0.320856,-1.895398 -0.646161,-1.330964 -0.646161,-1.330964 -0.986793,-1.152845 -0.986792,-1.152845 -1.358947,-0.869308 -1.358946,-0.869308 -1.545997,-0.449433 -1.545996,-0.449433 -1.739625,0.133384 -1.739626,0.133384 -1.508556,0.574534 -1.508557,0.574534 -1.314222,1.181598 -1.314222,1.181599 -0.821575,1.240351 -0.821574,1.240352 -0.522834,1.692739 -0.522834,1.69274 v 1.504041 1.504042 l 0.390923,1.500857 0.390924,1.500858 2.008413,3.83674 2.008412,3.83674 0.359857,2.324762 0.359858,2.324761 0.34966,0.72554 0.349661,0.72554 4.497916,0.0011 4.497917,0.0011 z"
       id="path1" /></g></svg>
