<?xml version="1.0" encoding="UTF-8" standalone="no"?>
<!-- Created with Inkscape (http://www.inkscape.org/) -->

<svg
   width="100mm"
   height="100mm"
   viewBox="0 0 100 100"
   version="1.1"
   id="svg1"
   xml:space="preserve"
   sodipodi:docname="n5W.svg"
   inkscape:version="1.4.3 (0d15f750, 2025-12-25)"
   xmlns:inkscape="http://www.inkscape.org/namespaces/inkscape"
   xmlns:sodipodi="http://sodipodi.sourceforge.net/DTD/sodipodi-0.dtd"
   xmlns="http://www.w3.org/2000/svg"
   xmlns:svg="http://www.w3.org/2000/svg"><sodipodi:namedview
     id="namedview1"
     pagecolor="#ffffff"
     bordercolor="#000000"
     borderopacity="0.25"
     inkscape:showpageshadow="2"
     inkscape:pageopacity="0.0"
     inkscape:pagecheckerboard="0"
     inkscape:deskcolor="#d1d1d1"
     inkscape:document-units="mm"
     inkscape:zoom="2.3283333"
     inkscape:cx="188.76163"
     inkscape:cy="188.76163"
     inkscape:window-width="1171"
     inkscape:window-height="1186"
     inkscape:window-x="0"
     inkscape:window-y="30"
     inkscape:window-maximized="0"
     inkscape:current-layer="svg1" /><defs
     id="defs1" /><g
     id="layer1"><path
       style="fill:#ffffff;stroke-width:0;stroke-dasharray:none;stroke:#000000;stroke-opacity:1"
       d="m 61.611351,76.209107 -1.101581,-0.154887 -0.396646,-0.329187 -0.396647,-0.329188 -0.979769,-1.42258 -0.979769,-1.422581 -0.738028,-0.305702 -0.738029,-0.305701 -0.620433,0.08784 -0.620434,0.08784 -0.744156,1.388612 -0.744155,1.388611 -0.471684,0.252438 -0.471684,0.252437 -0.716926,0.130004 -0.716926,0.130003 -4.681817,-0.518659 -4.681818,-0.51866 -3.121897,-0.402933 -3.121897,-0.402932 -2.698936,-0.493074 -2.698936,-0.493075 -0.701605,-0.273806 -0.701605,-0.273807 -0.718747,-0.942326 -0.718748,-0.942327 0.105875,-3.398103 0.105875,-3.398102 0.467532,-0.713544 0.467532,-0.713544 0.913091,-0.435423 0.913091,-0.435423 0,-0.183479 0,-0.18348 -0.767615,-0.317957 -0.767615,-0.317957 -0.621448,-0.664539 -0.621447,-0.664539 0.03533,-5.068874 0.03533,-5.068874 0.291396,-1.071736 0.291396,-1.071736 1.25955,-1.25955 1.25955,-1.25955 3.176225,-1.535459 3.176225,-1.53546 1.167189,-0.323859 1.167188,-0.323859 0.552603,-0.105985 0.552603,-0.105985 1.984375,-0.44134 1.984375,-0.441339 2.645833,-0.0072 2.645834,-0.0072 1.058333,0.307636 1.058333,0.307637 3.092956,1.722289 3.092956,1.72229 1.272669,0.310429 1.272669,0.310428 2.645833,0.903609 2.645834,0.903609 3.063913,1.175209 3.063913,1.175209 0.71161,0.742761 0.711611,0.742762 0.246023,0.857834 0.246024,0.857835 0.04535,10.631623 0.04535,10.631623 -0.285922,0.716788 -0.285923,0.716788 -1.103791,0.563112 -1.103791,0.563112 -2.809474,0.478251 -2.809474,0.478251 -1.455208,0.101783 -1.455208,0.101782 z m 6.744384,-2.830496 2.203221,-0.41813 0.493375,-0.42276 0.493375,-0.422761 0.08153,-0.908966 0.08153,-0.908965 -0.926042,-0.226202 -0.926042,-0.226201 -0.740081,-0.291163 -0.740081,-0.291163 -0.384398,-0.743343 -0.384398,-0.743343 0.0094,-1.005327 0.0094,-1.005326 0.321354,-0.57309 0.321353,-0.57309 0.731765,-0.573865 0.731765,-0.573866 0.921881,-0.254544 0.921881,-0.254543 v -5.175246 -5.175246 l -0.463021,0.186669 -0.463021,0.18667 -0.992187,0.141059 -0.992188,0.141058 -0.01961,2.015684 -0.01961,2.015683 -0.178826,1.162592 -0.178826,1.162591 -0.46302,0.291264 -0.463021,0.291263 -0.463021,-0.291086 -0.463021,-0.291087 -0.132291,-3.014852 -0.132292,-3.014851 -3.43361,-0.201794 -3.43361,-0.201794 -3.577848,-0.561692 -3.577848,-0.561691 -0.926042,-0.110308 -0.926042,-0.110307 -0.628941,1.471223 -0.628941,1.471223 -0.885181,0.777199 -0.885181,0.777199 -0.999419,0.277541 -0.99942,0.277541 -0.961974,0.0015 -0.961974,0.0015 -1.393539,-0.727993 -1.393538,-0.727993 -0.554355,-1.057944 -0.554355,-1.057945 -5.49e-4,-1.452503 -5.49e-4,-1.452503 -1.322917,-0.229869 -1.322916,-0.22987 -3.248339,-0.58399 -3.248338,-0.58399 -0.108968,0.546571 -0.108967,0.546571 -0.126699,3.988285 -0.126699,3.988285 0.176713,0.281651 0.176714,0.281651 1.295664,0.759658 1.295664,0.759658 0.277414,0.439793 0.277415,0.439792 -0.250162,1.00258 -0.250162,1.002579 -1.175318,0.338977 -1.175318,0.338976 -0.252896,0.252896 -0.252896,0.252897 0.04226,2.983981 0.04226,2.983982 0.350566,0.350566 0.350567,0.350567 3.189472,0.511815 3.189473,0.511816 5.783419,0.668579 5.78342,0.66858 1.233394,0.160805 1.233393,0.160805 0.660246,-1.045897 0.660245,-1.045897 0.809159,-0.680862 0.809158,-0.680862 1.037717,-0.175321 1.037717,-0.175321 1.076101,0.289764 1.076101,0.289764 0.814024,0.684956 0.814025,0.684956 0.78556,1.141774 0.785561,1.141773 0.595258,0.121456 0.595258,0.121455 1.719791,-0.122066 1.719792,-0.122066 z M 39.11613,70.103631 38.273494,69.859817 37.477965,69.064288 36.682437,68.26876 36.506593,67.096151 36.33075,65.923542 l 0.491091,-0.988258 0.491091,-0.988257 0.716632,-0.523564 0.716631,-0.523563 1.489394,-0.123512 1.489393,-0.123512 1.048883,0.346162 1.048883,0.346163 0.779988,0.888357 0.779988,0.888357 v 1.410321 1.41032 l -0.574517,0.730379 -0.574516,0.73038 -1.07913,0.490116 -1.079129,0.490116 -1.058333,-0.01805 -1.058333,-0.01805 z m 3.561889,-2.237007 0.588038,-0.411878 v -0.790773 -0.790774 l -0.649432,-0.649432 -0.649431,-0.649431 h -1.082387 -1.082386 l -0.649432,0.649431 -0.649432,0.649432 v 0.654281 0.654282 l 0.69714,0.54837 0.69714,0.54837 h 1.096072 1.096072 z m 14.346371,-3.743728 -0.396875,-0.14508 -0.620451,-0.561636 -0.620452,-0.561636 -0.371736,-0.714465 -0.371736,-0.714465 9.89e-4,-1.005327 9.89e-4,-1.005326 0.516477,-0.847051 0.516477,-0.847051 0.834834,-0.431709 0.834834,-0.431709 1.40821,-0.01265 1.40821,-0.01265 0.849854,0.497664 0.849854,0.497664 0.519771,0.697379 0.519772,0.697379 0.126561,1.154704 0.126562,1.154704 -0.62395,0.926042 -0.62395,0.926042 -0.920768,0.462609 -0.920768,0.46261 -1.322916,-0.02048 -1.322917,-0.02048 z m 3.359607,-2.336633 0.609143,-0.399126 v -0.704452 -0.704452 l -0.575287,-0.612365 -0.575287,-0.612366 h -0.875747 -0.875747 l -0.858411,0.76699 -0.858411,0.76699 0.263318,0.748741 0.263318,0.748741 0.657065,0.343193 0.657064,0.343193 0.779919,-0.142981 0.77992,-0.14298 z m 11.238113,5.958455 0.08973,-0.269202 -0.09185,-1.154916 -0.09185,-1.154917 -0.487862,0.127579 -0.487862,0.127579 -0.437202,0.483103 -0.437202,0.483103 0.09168,0.476061 0.09168,0.476062 0.659114,0.333474 0.659115,0.333474 0.176389,0.0039 0.176389,0.0039 z M 46.651022,54.128651 47.430754,53.47255 47.767852,52.658723 48.10495,51.844896 47.868316,51.619849 47.631682,51.394803 46.441057,51.248802 45.250432,51.1028 43.602965,50.925925 41.955498,50.74905 l -0.26417,0.694821 -0.26417,0.694821 0.160389,0.801947 0.160389,0.801947 0.66245,0.521083 0.662451,0.521083 h 1.399226 1.399227 z m 23.162477,-3.064792 1.274207,-0.320849 -0.380154,-0.380155 -0.380155,-0.380154 -2.087441,-0.909886 -2.087441,-0.909885 -0.79375,-0.236775 -0.79375,-0.236775 -4.580934,-1.602781 -4.580934,-1.602781 -1.544713,-0.938363 -1.544713,-0.938364 -1.244144,-0.550344 -1.244144,-0.550344 -2.38288,0.02554 -2.382879,0.02554 -2.616636,0.533237 -2.616636,0.533236 -2.202906,0.797105 -2.202906,0.797104 -1.814081,1.128634 -1.81408,1.128633 -0.09735,0.292049 -0.09735,0.292049 1.931559,0.296888 1.93156,0.296887 2.116667,0.373702 2.116666,0.373701 3.836459,0.429401 3.836458,0.4294 3.704166,0.53497 3.704167,0.534969 2.116666,0.253618 2.116667,0.253618 2.116667,0.349151 2.116666,0.349151 2.648597,-0.07514 2.648597,-0.07514 z M 44.332718,46.140455 42.907489,45.775712 42.557606,45.485336 42.207724,45.194959 v -0.470887 -0.470887 l 0.833232,-0.290466 0.833232,-0.290466 h 2.190577 2.190578 l 0.415774,0.415774 0.415773,0.415773 v 0.633251 0.63325 l -0.46302,0.238975 -0.463021,0.238976 -1.201451,0.128472 -1.201451,0.128473 z"
       id="path1" /></g></svg>
