<?xml version="1.0" encoding="UTF-8" standalone="no"?>
<!-- Created with Inkscape (http://www.inkscape.org/) -->

<svg
   width="100mm"
   height="100mm"
   viewBox="0 0 100 100"
   version="1.1"
   id="svg1"
   xml:space="preserve"
   sodipodi:docname="n6W.svg"
   inkscape:version="1.4.3 (0d15f750, 2025-12-25)"
   xmlns:inkscape="http://www.inkscape.org/namespaces/inkscape"
   xmlns:sodipodi="http://sodipodi.sourceforge.net/DTD/sodipodi-0.dtd"
   xmlns="http://www.w3.org/2000/svg"
   xmlns:svg="http://www.w3.org/2000/svg"><sodipodi:namedview
     id="namedview1"
     pagecolor="#ffffff"
     bordercolor="#000000"
     borderopacity="0.25"
     inkscape:showpageshadow="2"
     inkscape:pageopacity="0.0"
     inkscape:pagecheckerboard="0"
     inkscape:deskcolor="#d1d1d1"
     inkscape:document-units="mm"
     inkscape:zoom="2.3283333"
     inkscape:cx="188.76163"
     inkscape:cy="188.76163"
     inkscape:window-width="1171"
     inkscape:window-height="1186"
     inkscape:window-x="0"
     inkscape:window-y="30"
     inkscape:window-maximized="0"
     inkscape:current-layer="svg1" /><defs
     id="defs1" /><g
     id="layer1"><path
       style="fill:#ffffff;stroke-width:0;stroke-dasharray:none"
       d="m 23.725885,77.397984 -0.842533,-0.366446 -1.538717,-1.030061 -1.538716,-1.030062 -3.212051,-2.162958 -3.21205,-2.162958 -0.150145,-0.391271 -0.150145,-0.391271 0.404532,-0.404532 0.404532,-0.404532 h 3.508879 3.508878 l 0.154498,-0.154498 0.154498,-0.154498 -0.534572,-1.499148 -0.534572,-1.499147 -0.0095,-2.645834 -0.0095,-2.645833 0.456405,-1.852083 0.456405,-1.852083 0.515809,-1.424174 0.515809,-1.424173 0.70291,-1.22166 0.702911,-1.22166 1.104413,-1.455208 1.104413,-1.455209 1.225554,-1.129552 1.225554,-1.129553 1.876255,-1.213743 1.876255,-1.213744 1.571402,-0.638517 1.571401,-0.638518 1.861715,-0.391624 1.861715,-0.391623 2.617939,0 H 43.9941 l 2.594008,0.41085 2.594009,0.410851 2.575447,-0.653536 2.575446,-0.653535 0.909488,-0.562095 0.909488,-0.562094 2.282067,-3.41598 2.282067,-3.41598 -0.30708,-0.573784 -0.30708,-0.573785 0,-0.855972 0,-0.855972 0.427811,-0.827297 0.427812,-0.827297 0.776133,-0.401354 0.776132,-0.401353 0.832212,0 0.832212,0 0.786702,0.46302 0.786702,0.463021 0.532471,0.859896 0.532471,0.859896 0.838316,0.0059 0.838317,0.0059 0.564346,0.457138 0.564345,0.457138 0.29555,0.577918 0.295551,0.577918 v 1.203845 1.203845 l -0.727605,0.811623 -0.727604,0.811622 -1.322916,0.187178 -1.322917,0.187179 -1.918229,2.87331 -1.918229,2.873309 0,0.228044 v 0.228043 l 1.256771,-0.151326 1.25677,-0.151326 0.896925,-0.273227 0.896924,-0.273226 2.915689,-2.829236 2.91569,-2.829236 0.02384,-1.657787 0.02384,-1.657786 0.86407,-0.771905 0.86407,-0.771904 1.414954,0 1.414955,0 0.717333,0.717333 0.717333,0.717333 0.347269,0.831132 0.347269,0.831131 0.79706,0.159412 0.79706,0.159412 0.56648,0.795548 0.56648,0.795548 0.121528,0.949203 0.121528,0.949203 -0.369836,0.715184 -0.369836,0.715184 -0.584116,0.528543 -0.584117,0.528542 -1.560605,0.0057 -1.560605,0.0057 -2.777158,2.767707 -2.777158,2.767707 v 0.184008 l 0,0.184008 1.557622,0.946205 1.557623,0.946206 0.946499,1.047661 0.946499,1.047662 0.62951,1.001852 0.62951,1.001852 0.594459,1.5875 0.594459,1.5875 0.0019,2.116667 0.0019,2.116666 -0.575563,1.719792 -0.575563,1.719792 -0.787752,1.236517 -0.787751,1.236518 -1.17604,1.084036 -1.17604,1.084035 v 0.126843 0.126842 h 5.635625 5.635625 l 0.3175,0.3175 0.3175,0.3175 v 0.456883 0.456883 l -4.828646,3.232598 -4.828646,3.232597 -0.851397,0.358645 -0.851398,0.358644 -24.945477,-0.01036 -24.945476,-0.01036 z m 53.979996,-3.81709 3.351078,-2.219874 V 71.133498 70.905976 H 55.251781 29.446603 l -0.166096,-0.432837 -0.166095,-0.432838 0.269265,-0.427058 0.269265,-0.427058 19.550446,-0.140808 19.550446,-0.140807 1.019911,-0.342305 1.01991,-0.342304 0.964465,-0.533453 0.964464,-0.533454 0.885155,-0.835518 0.885156,-0.835518 0.794241,-1.143432 0.794241,-1.143432 0.531521,-1.878219 0.531521,-1.87822 L 76.974351,58.094742 76.804283,56.750769 76.37833,55.427852 75.952377,54.104935 75.207378,53.013468 74.462379,51.922 73.195607,50.866304 71.928834,49.810608 71.380747,49.639827 70.83266,49.469045 l -0.447845,3.640862 -0.447845,3.640862 -0.36441,1.190624 -0.36441,1.190625 -0.329142,0.713049 -0.329141,0.713049 -0.294891,0.112081 -0.294892,0.11208 -0.625642,-0.23251 -0.625642,-0.232511 0.146096,-0.592619 0.146095,-0.592619 0.571577,-1.5875 0.571577,-1.587499 0.244762,-2.513542 0.244761,-2.513542 0.09987,-1.483522 0.09987,-1.483521 0.45879,-0.897729 0.458789,-0.897728 0.529529,-0.752744 0.529528,-0.752744 -0.823171,-0.82317 -0.823171,-0.823171 -0.734101,0.542735 -0.734101,0.542735 -0.836563,0.432596 -0.836563,0.432596 -3.39677,0.268559 -3.39677,0.268559 -1.915484,0.503373 -1.915483,0.503373 -1.391808,0.782153 -1.391809,0.782153 -1.070581,1.305396 -1.070581,1.305397 -0.483312,1.536573 -0.483311,1.536574 0.119958,2.025362 0.119958,2.025362 0.550462,1.237104 0.550462,1.237104 1.110616,1.204876 1.110615,1.204876 1.485321,0.7267 1.48532,0.7267 2.096568,0.138611 2.096567,0.138612 0.290658,0.463021 0.290657,0.463021 -0.290617,0.46302 -0.290617,0.463021 -1.473342,0.07873 -1.473342,0.07874 -1.674271,-0.429749 -1.674271,-0.429749 -1.236518,-0.78805 -1.236517,-0.78805 -1.059791,-1.149736 -1.05979,-1.149737 -0.523657,-1.026453 -0.523658,-1.026454 -0.413074,-1.447245 -0.413074,-1.447245 0.09171,-2.116667 0.09171,-2.116667 0.569655,-1.419179 0.569655,-1.419179 0.780058,-1.133775 0.780058,-1.133776 1.065274,-0.843712 1.065273,-0.843712 -0.134936,-0.218332 -0.134937,-0.218332 -1.123092,-0.199622 -1.123093,-0.199622 -0.396875,-0.0555 -0.396875,-0.0555 -3.307291,-0.591762 -3.307292,-0.591762 -2.116667,0.159243 -2.116666,0.159244 -1.5875,0.406876 -1.5875,0.406876 -2.116667,1.007691 -2.116666,1.007691 -1.664319,1.385243 -1.664319,1.385243 -1.207211,1.502826 -1.207211,1.502826 -1.009544,2.116667 -1.009543,2.116667 -0.419907,1.631484 -0.419907,1.631484 -0.158103,1.94039 -0.158104,1.940391 0.422809,1.796411 0.42281,1.79641 0.405048,0.783277 0.405048,0.783277 1.117685,0.0041 1.117684,0.0041 0.353879,0.224308 0.353878,0.224308 -0.08929,0.631536 -0.08929,0.631537 -4.167187,0.07286 -4.167188,0.07287 v 0.231318 0.231319 l 3.105053,2.050477 3.105053,2.050476 0.66526,0.205033 0.665259,0.205033 24.364026,-0.04615 24.364026,-0.04615 z M 57.905918,43.78786 l 0.529167,-0.0627 0.669227,-0.181958 0.669227,-0.181957 0.364813,-0.82417 0.364813,-0.824169 -0.769457,-0.615693 -0.769457,-0.615694 -0.229565,-0.0013 -0.229565,-0.0013 -0.997986,0.997986 -0.997986,0.997986 -0.624532,0.29322 -0.624532,0.293219 -0.661459,0.264679 -0.661458,0.26468 0.926042,0.281902 0.926041,0.281903 0.79375,-0.151956 0.79375,-0.151956 z m 16.147865,-2.279727 1.579218,-1.616595 0.837305,-0.361892 0.837305,-0.361892 0.840746,0.293086 0.840746,0.293085 0.557846,-0.557845 0.557845,-0.557846 -0.256299,-0.733316 -0.256298,-0.733316 -0.921265,-0.08683 -0.921265,-0.08683 -0.46302,-0.417197 -0.463021,-0.417198 v -0.665763 -0.665764 l -0.437882,-0.483854 -0.437883,-0.483854 -0.455762,0 h -0.455763 l -0.320748,0.386478 -0.320749,0.386478 0.06075,1.002585 0.06075,1.002584 -0.03698,0.49122 -0.03698,0.49122 -1.899206,1.958659 -1.899205,1.958659 0.758082,0.791266 0.758081,0.791267 h 0.157219 0.157219 z m -10.751025,-3.767177 1.287311,-1.907712 0.43166,-0.358246 0.431659,-0.358245 1.048271,-0.05915 1.048272,-0.05915 0.403514,-0.334887 0.403514,-0.334887 v -0.455763 -0.455763 l -0.520466,-0.471016 -0.520467,-0.471015 -0.566262,0.14808 -0.566262,0.148081 -0.638805,-0.242873 -0.638804,-0.242873 -0.161521,-0.807607 -0.161522,-0.807608 -0.524957,-0.367695 -0.524958,-0.367694 -0.616141,0.280733 -0.616141,0.280732 -0.150579,0.392402 -0.150578,0.392402 0.400607,0.803035 0.400606,0.803036 -0.0018,0.554662 -0.0018,0.554662 -1.453414,2.111095 -1.453413,2.111094 0.0046,0.270156 0.0046,0.270155 0.834313,0.583033 0.834312,0.583033 0.223693,-0.13825 0.223692,-0.13825 z"
       id="path1" /></g></svg>
