<?xml version="1.0" encoding="UTF-8" standalone="no"?>
<!-- Created with Inkscape (http://www.inkscape.org/) -->

<svg
   width="100mm"
   height="100mm"
   viewBox="0 0 100 100"
   version="1.1"
   id="svg1"
   xml:space="preserve"
   sodipodi:docname="n7W.svg"
   inkscape:version="1.4.3 (0d15f750, 2025-12-25)"
   xmlns:inkscape="http://www.inkscape.org/namespaces/inkscape"
   xmlns:sodipodi="http://sodipodi.sourceforge.net/DTD/sodipodi-0.dtd"
   xmlns="http://www.w3.org/2000/svg"
   xmlns:svg="http://www.w3.org/2000/svg"><sodipodi:namedview
     id="namedview1"
     pagecolor="#ffffff"
     bordercolor="#000000"
     borderopacity="0.25"
     inkscape:showpageshadow="2"
     inkscape:pageopacity="0.0"
     inkscape:pagecheckerboard="0"
     inkscape:deskcolor="#d1d1d1"
     inkscape:document-units="mm"
     inkscape:zoom="2.3283333"
     inkscape:cx="188.76163"
     inkscape:cy="188.76163"
     inkscape:window-width="1171"
     inkscape:window-height="1186"
     inkscape:window-x="0"
     inkscape:window-y="30"
     inkscape:window-maximized="0"
     inkscape:current-layer="svg1" /><defs
     id="defs1" /><g
     id="layer1"><path
       style="fill:#ffffff;stroke-width:0;stroke-dasharray:none"
       d="m 27.081961,83.048272 -2.513542,-0.220351 -1.322917,-0.296028 -1.322916,-0.296028 -1.124479,-0.409223 -1.12448,-0.409224 0,-0.272735 v -0.272735 l -0.167079,0.16708 -0.16708,0.16708 -0.508537,-0.27216 -0.508536,-0.272161 -0.51402,-0.843009 -0.514019,-0.84301 -9.89e-4,-9.806725 -9.9e-4,-9.806725 -0.940668,-0.448573 -0.940668,-0.448574 -0.382248,-0.914849 -0.382249,-0.914849 9.89e-4,-3.249644 9.89e-4,-3.249644 0.518639,-0.850604 0.518638,-0.850605 1.327387,-0.672638 1.327388,-0.672638 1.658714,-0.394432 1.658714,-0.394431 2.778125,-0.161008 2.778125,-0.161008 0.529167,-0.08447 0.529167,-0.08447 3.968749,-0.01957 3.96875,-0.01957 -0.06507,-4.696445 -0.06507,-4.696445 0.152976,-1.410819 0.152976,-1.410819 0.507409,-0.50741 0.50741,-0.50741 -0.19371,0 -0.193711,0 1.000014,-0.679527 1.000015,-0.679527 2.567133,-1.34341 2.567134,-1.34341 1.455208,-0.833513 1.455209,-0.833512 1.322916,-0.64928 1.322917,-0.649279 h 17.009227 17.009227 l 0.250784,0.396875 0.250783,0.396875 0.0041,-0.210464 0.0041,-0.210464 0.727604,0.727535 0.727604,0.727535 0.07062,22.232205 0.07061,22.232205 -0.569479,0.770262 -0.569479,0.770261 0.366573,-0.220848 0.366573,-0.220848 -0.36889,0.454609 -0.36889,0.454609 -2.250383,1.226685 -2.250384,1.226685 -2.672393,0.949183 -2.672393,0.949182 -9.128125,-0.0444 -9.128125,-0.0444 -2.213609,-0.236419 -2.21361,-0.236418 -0.47031,1.097189 -0.47031,1.097189 -1.130372,0.831285 -1.130372,0.831285 -1.345083,0.387037 -1.345083,0.387037 -2.413219,0.414912 -2.413219,0.414912 -1.105953,-0.08749 -1.105953,-0.08749 -0.134464,0.217568 -0.134464,0.217567 -4.680739,-0.03639 -4.680739,-0.03639 z m 11.592085,-2.108688 3.886039,-0.285141 1.877355,-0.355748 1.877354,-0.355748 1.239897,-0.58282 1.239897,-0.582821 0.22926,-0.429936 0.22926,-0.429935 0.195025,-9.194271 0.195025,-9.194271 -0.366537,0.0094 -0.366536,0.0094 -2.38125,0.392563 -2.38125,0.392563 -7.672916,0.160451 -7.672917,0.160452 -3.175,-0.293735 -3.175,-0.293734 -1.25677,-0.172336 -1.256771,-0.172335 0,9.142449 0,9.142448 0.164354,0.4283 0.164354,0.428301 0.795603,0.411422 0.795603,0.411422 1.222855,0.355538 1.222856,0.355538 2.116666,0.282564 2.116667,0.282564 1.190625,0.08509 1.190625,0.08509 1.934794,0.04622 1.934795,0.04622 z m -6.829586,-2.940239 -1.190625,-0.292248 -0.859895,0.01587 -0.859896,0.01587 -1.675389,0.05622 -1.675388,0.05622 -0.589532,-0.315508 -0.589533,-0.315508 0.0835,-0.433569 0.0835,-0.433568 0.660069,-0.183664 0.660069,-0.183665 0.822879,-0.02637 0.82288,-0.02637 0.149582,-1.449305 0.149581,-1.449306 0.747331,-1.394965 0.74733,-1.394966 1.232115,-1.193533 1.232114,-1.193533 1.678302,-0.99743 1.678302,-0.99743 1.361852,-0.399589 1.361853,-0.399588 1.143601,-0.552528 1.143601,-0.552528 1.438571,-0.494941 1.438571,-0.494941 h 1.007604 1.007604 l 0.303083,0.566316 0.303083,0.566316 -0.156674,1.484204 -0.156673,1.484205 -0.174192,0.661459 -0.174192,0.661458 -0.982591,1.461738 -0.982591,1.461738 0.358224,0.334631 0.358224,0.334631 0.03135,0.584881 0.03135,0.584881 -0.05504,0.396875 -0.05504,0.396875 -0.636047,0.839993 -0.636047,0.839993 -1.126195,0.759168 -1.126195,0.759169 -1.190625,0.476127 -1.190625,0.476127 -2.38125,0.09617 -2.38125,0.09617 z m 6.558858,-2.227298 1.399483,-0.388995 1.047913,-1.047913 1.047913,-1.047913 -0.0041,-0.198437 -0.0041,-0.198438 -0.219071,-0.345404 -0.219071,-0.345405 -1.371288,0.521049 -1.371289,0.521048 -1.847548,0.330175 -1.847548,0.330176 -1.055958,0.90386 -1.055957,0.903861 v 0.229469 0.229469 l 1.256771,0.101147 1.25677,0.101148 0.79375,-0.104952 0.79375,-0.104951 z m -5.798432,-2.208078 1.440314,-1.443049 1.028716,-2.226651 1.028715,-2.22665 -0.13253,-0.132529 -0.132529,-0.13253 -1.798118,1.265326 -1.798119,1.265325 -0.608902,0.68482 -0.608903,0.68482 -0.779951,1.5875 -0.779951,1.5875 -2.09e-4,0.57233 -2.09e-4,0.57233 0.850681,-0.307747 0.850681,-0.307746 z m 6.383324,-2.30923 0.926042,-0.373248 0.970933,-0.67047 0.970933,-0.67047 0.669149,-0.970933 0.66915,-0.970933 0.26342,-1.184111 0.263421,-1.184112 -0.285291,-0.176319 -0.285291,-0.17632 -0.69217,0.19929 -0.692171,0.19929 -1.396535,0.601625 -1.396535,0.601625 -0.532558,0.747908 -0.532558,0.747909 -0.782886,1.898518 -0.782886,1.898519 v 0.08929 0.08929 l 0.859896,-0.161547 0.859896,-0.161546 z m 32.871163,-15.11894 0.06946,-19.79726 -0.08555,-0.443364 -0.08555,-0.443364 H 55.240684 38.723627 v 5.159375 5.159374 l 0.06615,0.0083 0.06615,0.0083 4.101041,0.243158 4.101042,0.243158 1.887765,0.399961 1.887765,0.39996 1.098962,0.439718 1.098962,0.439717 0.38671,0.747815 0.38671,0.747816 v 3.945809 3.94581 l -0.697537,0.697538 -0.697538,0.697537 -0.228504,0 h -0.228504 v 8.210387 8.210387 l 0.330729,0.125236 0.33073,0.125236 3.968749,0.224526 3.96875,0.224526 5.61908,0.03881 5.61908,0.03881 z m -14.35033,14.902469 v -0.132292 h 0.132292 0.132291 v 0.132292 0.132292 H 57.641335 57.509043 Z M 56.979876,70.509101 V 70.37681 h 0.132292 0.132292 v 0.132291 0.132292 h -0.132292 -0.132292 z m 1.5875,-0.529166 v -0.132292 h 0.132292 0.132292 v 0.132292 0.132291 H 58.699668 58.567376 Z M 56.96147,47.468174 56.613687,47.049121 56.891764,46.608278 57.16984,46.167435 h 5.366286 5.366286 l 0.278077,0.440843 0.278076,0.440843 -0.347783,0.419053 -0.347783,0.419053 h -5.226873 -5.226873 z m -4.233333,-5.027083 -0.347783,-0.419053 0.278076,-0.440843 0.278077,-0.440843 h 7.086078 7.086077 l 0.269382,0.427058 0.269381,0.427058 -0.166096,0.432838 -0.166095,0.432838 H 60.195577 53.07592 Z m 26.344447,31.393266 3.175,-1.547852 0.464634,-0.514442 0.464634,-0.514443 -0.06776,-20.823656 -0.06776,-20.823656 -1.06009,0.779622 -1.060091,0.779622 -3.305534,1.716714 -3.305535,1.716714 -0.07697,19.408269 -0.07697,19.408269 0.162887,1.1482 0.162887,1.148201 0.707835,-0.166856 0.707835,-0.166855 z m -33.866666,-15.873375 2.645834,-0.311669 1.266782,-0.407715 1.266783,-0.407716 0.359789,-0.570723 0.359789,-0.570724 0.17375,-2.410168 0.17375,-2.410168 -0.174889,-0.696814 -0.174889,-0.696815 -1.311095,-0.389353 -1.311094,-0.389353 -2.82788,-0.338041 -2.82788,-0.338041 -8.731249,-0.0021 -8.73125,-0.0021 -2.230033,0.35211 -2.230032,0.35211 -1.405701,0.52594 -1.405701,0.52594 -0.399162,0.569884 -0.399163,0.569884 v 2.700354 2.700355 l 0.4131,0.413099 0.413099,0.413099 1.372838,0.381838 1.372838,0.381838 1.455209,0.184697 1.455208,0.184697 5.027083,0.163744 5.027083,0.163744 4.365625,-0.165101 4.365625,-0.165101 z M 23.113211,54.092372 19.805919,53.727145 19.210607,53.458692 18.615294,53.190238 V 52.7918 52.393361 l 10.297063,0.170785 10.297062,0.170784 4.746073,-0.345434 4.746073,-0.345434 0.699572,0.175582 0.699573,0.175581 v 0.238279 0.238279 l -1.256771,0.405848 -1.256771,0.405848 -1.984375,0.304603 -1.984375,0.304604 -8.598958,0.08246 -8.598958,0.08246 z m 49.197439,-21.201361 1.205684,-0.448879 2.401073,-1.246939 2.401072,-1.24694 1.501532,-0.960518 1.501531,-0.960518 v -0.262695 -0.262696 l -15.279687,0.07239 -15.279687,0.07239 -3.789701,1.92344 -3.789701,1.923439 -1.51911,0.986977 -1.519111,0.986977 15.480211,-0.06377 15.48021,-0.06377 z"
       id="path1" /></g></svg>
