<?xml version="1.0" encoding="UTF-8" standalone="no"?>
<!-- Created with Inkscape (http://www.inkscape.org/) -->

<svg
   width="100mm"
   height="100mm"
   viewBox="0 0 100 100"
   version="1.1"
   id="svg1"
   xml:space="preserve"
   sodipodi:docname="n8W.svg"
   inkscape:version="1.4.3 (0d15f750, 2025-12-25)"
   xmlns:inkscape="http://www.inkscape.org/namespaces/inkscape"
   xmlns:sodipodi="http://sodipodi.sourceforge.net/DTD/sodipodi-0.dtd"
   xmlns="http://www.w3.org/2000/svg"
   xmlns:svg="http://www.w3.org/2000/svg"><sodipodi:namedview
     id="namedview1"
     pagecolor="#ffffff"
     bordercolor="#000000"
     borderopacity="0.25"
     inkscape:showpageshadow="2"
     inkscape:pageopacity="0.0"
     inkscape:pagecheckerboard="0"
     inkscape:deskcolor="#d1d1d1"
     inkscape:document-units="mm"
     inkscape:zoom="2.3283333"
     inkscape:cx="188.76163"
     inkscape:cy="188.76163"
     inkscape:window-width="1171"
     inkscape:window-height="1186"
     inkscape:window-x="0"
     inkscape:window-y="30"
     inkscape:window-maximized="0"
     inkscape:current-layer="svg1" /><defs
     id="defs1" /><g
     id="layer1"><path
       style="fill:#ffffff;stroke-width:0;stroke-dasharray:none"
       d="m 43.971764,77.680465 -0.08876,-0.07743 -2.432665,-0.154607 -2.432665,-0.154607 -1.652507,-0.428208 -1.652507,-0.428207 -0.971803,-0.495777 -0.971804,-0.495777 -1.149027,-1.071451 -1.149028,-1.071452 H 27.712253 23.95351 L 21.884433,72.907065 19.815355,72.511185 18.45028,71.843316 17.085205,71.175448 15.974589,69.970572 14.863973,68.765696 14.374558,67.65929 13.885142,66.552884 13.581248,64.834686 13.277354,63.116487 13.1331,56.529149 12.988846,49.941811 12.087791,49.150674 11.186735,48.359536 10.508371,47.201995 9.8300065,46.044454 l 0.103355,-2.179608 0.1033545,-2.179608 0.747023,-1.543326 0.747022,-1.543325 1.587853,-1.69742 1.587853,-1.69742 1.806224,-1.200775 1.806223,-1.200775 2.20991,-1.020981 2.20991,-1.020982 1.840884,-0.568806 1.840884,-0.568807 4.101042,-0.710994 4.101041,-0.710993 8.202083,6.23e-4 8.202084,6.24e-4 2.313287,0.444245 2.313287,0.444246 2.24345,0.773284 2.24345,0.773284 2.034817,1.158524 2.034818,1.158524 2.017526,1.893013 2.017527,1.893014 0.776936,1.535586 0.776936,1.535587 0.0067,1.995358 0.0067,1.995358 -1.124479,2.309664 -1.12448,2.309664 v 3.690568 3.690569 l 1.521355,0.183328 1.521354,0.183328 2.645005,0.497111 2.645005,0.49711 2.382078,0.79548 2.382078,0.79548 1.659515,0.858224 1.659516,0.858224 1.548655,1.322917 1.548655,1.322916 0.866643,1.254586 0.866643,1.254585 0.480611,1.391248 0.480612,1.391248 0.0086,1.271899 0.0086,1.2719 -0.292095,1.160012 -0.292094,1.160012 -0.887021,1.036284 -0.88702,1.036284 -1.268281,0.541477 -1.268281,0.541477 -2.715473,0.42815 -2.715474,0.428151 -4.69286,0.25831 -4.692859,0.25831 -13.008113,-0.02126 -13.008113,-0.02126 z m 31.92582,-2.536309 3.704167,-0.273304 2.163933,-0.370521 2.163934,-0.370521 0.789267,-0.408146 0.789267,-0.408146 0.551631,-0.701285 0.551631,-0.701286 0.276735,-1.027712 0.276734,-1.027713 -0.177008,-0.988267 -0.177007,-0.988268 -0.638475,-1.370597 -0.638475,-1.370598 -1.396716,-1.41921 -1.396716,-1.41921 -2.113506,-1.099567 -2.113506,-1.099567 -2.101695,-0.576598 -2.101695,-0.576597 -1.409777,0.01266 -1.409777,0.01266 -2.468854,1.22526 -2.468855,1.225261 -1.718183,1.574403 -1.718184,1.574404 h -0.788486 -0.788486 l -0.138767,-0.725911 -0.138767,-0.725911 1.232402,-1.133926 1.232401,-1.133926 2.645833,-1.361578 2.645834,-1.361578 -0.79375,-0.214013 -0.79375,-0.214013 -1.852084,-0.03707 -1.852083,-0.03707 -1.322916,0.334415 -1.322917,0.334414 -2.192063,1.033356 -2.192063,1.033357 -2.159142,2.104726 -2.159143,2.104727 H 51.933464 51.48842 l -0.26372,-0.33073 -0.26372,-0.330729 0.105995,-0.651817 0.105995,-0.651818 0.588349,-0.633736 0.588349,-0.633735 2.216769,-1.580722 2.216768,-1.580721 1.487398,-0.573309 1.487398,-0.573308 -2.24096,-0.07779 -2.24096,-0.07779 -1.664647,0.259162 -1.664647,0.259161 -1.201252,0.599935 -1.201252,0.599934 -1.640016,1.354512 -1.640015,1.354512 -1.070685,1.568345 -1.070686,1.568344 -0.619184,0.0893 -0.619185,0.08929 -0.224308,-0.353878 -0.224308,-0.353878 -0.0041,-0.648477 -0.0041,-0.648477 1.572205,-1.528923 1.572205,-1.528923 0.875191,-0.53359 0.875191,-0.53359 -0.324689,-9.89e-4 -0.324689,-9.89e-4 -1.659686,0.626822 -1.659686,0.626822 -1.455208,0.856673 -1.455208,0.856673 -1.5875,1.12926 -1.5875,1.12926 -1.228468,1.314401 -1.228467,1.314401 -0.395989,0.769198 -0.395989,0.769198 -0.272445,0.992188 -0.272446,0.992187 0.253424,0.917825 0.253424,0.917825 0.649639,0.772053 0.64964,0.772053 1.12613,0.527171 1.12613,0.527171 1.455208,0.313263 1.455209,0.313264 2.116666,0.212619 2.116667,0.212618 13.758333,0.03412 13.758333,0.03412 z M 70.369642,64.417764 70.209043,63.99925 v -0.523142 -0.523142 l 0.264583,0.163521 0.264583,0.163522 V 63.00313 62.72625 l 1.078119,-0.680586 1.078119,-0.680587 0.572824,0.08196 0.572824,0.08196 0.08793,0.461355 0.08793,0.461354 -0.976993,1.192291 -0.976993,1.192292 h -0.865862 -0.865862 z m -40.080711,6.523593 0.428846,-0.01966 0.184662,-1.632203 0.184663,-1.632204 0.65016,-1.283028 0.650159,-1.283027 1.31602,-1.453195 1.316019,-1.453195 V 56.93244 51.680036 l -7.209895,-0.16754 -7.209896,-0.16754 -1.5875,-0.236478 -1.5875,-0.236478 -0.691744,-0.181293 -0.691743,-0.181293 -0.131552,0.350412 -0.131551,0.350412 0.188571,6.614583 0.188572,6.614583 0.549098,1.404695 0.549098,1.404695 0.696266,0.912851 0.696266,0.912852 0.978347,0.499115 0.978348,0.499116 1.189137,0.335883 1.189137,0.335884 2.910417,0.171653 2.910416,0.171653 0.529167,-0.06339 0.529166,-0.06339 z m 8.393852,-10.819607 0.702302,-0.481196 2.116667,-1.079509 2.116666,-1.079509 2.645834,-0.801922 2.645833,-0.801921 2.116667,-0.406575 2.116666,-0.406574 5.027083,0.101281 5.027084,0.101281 0.859895,0.187451 0.859896,0.187451 0.0037,-4.20026 0.0037,-4.20026 1.041011,-1.909638 1.041011,-1.909638 0.167435,-0.892504 0.167435,-0.892504 -0.288933,-1.073014 -0.288933,-1.073014 -0.987303,-0.958966 -0.987304,-0.958966 -2.088804,-0.805528 -2.088805,-0.805528 -3.150508,-0.255142 -3.150507,-0.255141 -2.788305,0.283627 -2.788305,0.283627 -2.160918,0.677971 -2.160918,0.677972 -1.814982,0.90557 -1.814983,0.90557 -1.110567,0.76409 -1.110567,0.76409 -1.006865,1.11448 -1.006866,1.11448 -0.528968,1.19582 -0.528968,1.19582 0.14278,1.064506 0.14278,1.064505 0.87902,1.211644 0.87902,1.211644 0.08128,5.357812 0.08128,5.357813 h 0.142462 0.142463 z m 4.644085,-8.18796 -0.291551,-0.194386 0.03638,-0.743073 0.03638,-0.743073 0.387461,-0.245063 0.387461,-0.245063 0.441381,-0.0041 0.441381,-0.0041 0.418515,0.160599 0.418514,0.160599 v 0.50086 0.500859 h -0.30868 -0.308681 l 0.174094,0.174093 0.174093,0.174094 -0.294685,0.355073 -0.294684,0.355073 -0.562916,-0.0041 -0.562916,-0.0041 z m 0.423842,-0.723552 v -0.132292 h -0.132292 -0.132291 v 0.132292 0.132291 h 0.132291 0.132292 z m 0.529167,0 v -0.132292 h -0.132292 -0.132292 v 0.132292 0.132291 h 0.132292 0.132292 z m 1.058333,-0.79375 v -0.132292 h -0.132292 -0.132291 v 0.132292 0.132291 h 0.132291 0.132292 z m 15.478125,0.661458 0.163521,-0.264583 H 60.684043 60.38823 l 0.149555,-0.241986 0.149555,-0.241985 -0.332378,-0.134001 -0.332377,-0.134002 0.346344,-0.02089 0.346344,-0.02089 -0.163522,-0.264584 -0.163521,-0.264583 0.610927,-0.0186 0.610928,-0.0186 -0.529167,-0.22739 -0.529167,-0.227391 0.706582,-0.0186 0.706582,-0.0186 0.176716,0.804587 0.176717,0.804588 -0.320382,0.386037 -0.320383,0.386038 H 61.165198 60.652813 Z M 53.209564,50.79217 52.746543,50.522485 v -0.267051 -0.267051 l 0.309546,0.19131 0.309547,0.19131 -0.168951,-0.440279 -0.168951,-0.440278 h 0.366932 0.366931 l 0.418515,0.160599 0.418514,0.160599 v 0.472552 0.472552 l -0.418514,0.160599 -0.418515,0.160599 -0.04451,-0.008 -0.04451,-0.008 z m 0.771701,-0.155196 -0.176389,-0.176389 -0.176388,0.176389 -0.176389,0.176389 h 0.352777 0.352778 z m -5.137326,-3.093838 -0.595312,-0.294837 v -0.201843 -0.201843 h 0.280198 0.280198 l -0.146387,-0.236859 -0.146387,-0.236859 0.337848,-0.129645 0.337848,-0.129644 0.527106,0.432649 0.527106,0.432649 -0.09212,0.463021 -0.09212,0.463021 -0.311329,-0.03249 -0.311328,-0.03249 z M 42.224427,45.905211 41.634043,45.49169 v -0.66207 -0.66207 l 0.246302,0.152222 0.246301,0.152222 0.150837,-0.24406 0.150837,-0.24406 0.595049,0.130405 0.595049,0.130404 -0.396875,-0.283484 -0.396875,-0.283483 0.321421,-0.0041 0.32142,-0.0041 0.285906,0.534221 0.285907,0.534222 -0.342743,0.703012 -0.342744,0.703012 -0.269512,0.08733 -0.269512,0.08733 z m 0.203366,-0.235608 v -0.116677 l -0.305463,-0.188787 -0.305464,-0.188787 0.188787,0.305464 0.188787,0.305463 h 0.116677 0.116676 z m 0.529167,-1.073949 v -0.132291 h -0.132292 -0.132291 v 0.132291 0.132292 h 0.132291 0.132292 z m 6.879167,1.5875 v -0.132291 h 0.132291 0.132292 v 0.132291 0.132292 h -0.132292 -0.132291 z m 9.631938,-1.589061 -0.434427,-0.663019 0.303774,-0.733377 0.303775,-0.733377 0.572187,-0.357337 0.572187,-0.357337 0.616658,0.761546 0.616657,0.761546 -0.152731,0.661458 -0.152732,0.661458 -0.432963,0.33073 -0.432963,0.330729 h -0.472498 -0.472497 z m 2.009728,-0.263022 V 44.198779 H 61.345501 61.21321 v 0.132292 0.132292 h 0.132291 0.132292 z m 0.264583,-0.79375 v -0.132292 h -0.132291 -0.132292 v 0.132292 0.132292 h 0.132292 0.132291 z M 48.51321,42.082113 v -0.264584 l -0.330729,0.06615 -0.330729,0.06615 -0.08372,-0.727604 -0.08372,-0.727604 h 0.310466 0.310465 l -0.157569,-0.410617 -0.157568,-0.410617 0.261552,0.161649 0.261553,0.161648 0.0041,-0.346344 0.0041,-0.346344 0.194386,0.264583 0.194386,0.264584 0.529167,0.292942 0.529166,0.292942 0.07564,0.38323 0.07564,0.38323 -0.503551,0.580598 -0.503551,0.580599 H 48.812905 48.51321 Z m 4.893324,-1.059956 -0.480358,-0.530788 0.174767,-0.174767 0.174767,-0.174767 v 0.186821 0.18682 l 0.369104,-0.341161 0.369104,-0.34116 -0.120136,-0.198438 -0.120135,-0.198437 h 0.393591 0.393591 l 0.415774,0.415773 0.415773,0.415774 v 0.226786 0.226786 l -0.415773,0.415773 -0.415774,0.415774 H 54.22386 53.886891 Z m -20.003096,7.486303 -0.500644,-0.981985 0.0026,-1.46541 0.0026,-1.465411 0.665304,-1.429214 0.665304,-1.429214 1.679495,-1.613494 1.679495,-1.613494 1.475292,-0.883838 1.475292,-0.883838 2.328887,-0.999652 2.328886,-0.999651 1.852084,-0.490966 1.852083,-0.490966 4.894791,-0.0068 4.894792,-0.0068 1.575127,0.224194 1.575128,0.224195 -0.384503,-0.467266 -0.384502,-0.467266 -1.5875,-0.71839 -1.5875,-0.71839 -2.248958,-0.546904 -2.248959,-0.546904 -2.68524,-0.256156 -2.685241,-0.256157 -1.923005,0.241461 -1.923005,0.241461 -2.996116,1.473528 -2.996115,1.473529 -1.483267,1.679027 -1.483267,1.679027 -0.481205,0.125838 -0.481206,0.125838 -0.286895,-0.286895 -0.286895,-0.286895 v -0.506948 -0.506947 l 0.918143,-1.250763 0.918144,-1.250762 1.000086,-0.682791 1.000085,-0.682792 1.190625,-0.523923 1.190625,-0.523923 0.661458,-0.272043 0.661458,-0.272044 -2.116666,-0.01144 -2.116667,-0.01144 -1.190625,0.271165 -1.190625,0.271164 -2.200912,1.061606 -2.200911,1.061607 -2.080677,2.100344 -2.080677,2.100345 h -0.49414 l -0.494141,0 -0.303941,-0.303942 -0.303942,-0.303942 0.35964,-0.688245 0.359641,-0.688246 1.157503,-1.20214 1.157504,-1.202139 1.44586,-0.842545 1.44586,-0.842544 -0.511149,-0.0058 -0.511148,-0.0058 -2.134685,0.554487 -2.134684,0.554487 -2.932778,1.412233 -2.932777,1.412233 -1.855432,1.478269 -1.855431,1.478268 -1.093492,1.475949 -1.093492,1.47595 -0.438087,1.389772 -0.438087,1.389772 0.186112,1.241079 0.186111,1.24108 0.778432,0.886585 0.778432,0.886584 2.047953,0.546142 2.047952,0.546142 3.307292,0.237814 3.307292,0.237814 4.403248,0.03809 4.403249,0.03809 z"
       id="path1" /></g></svg>
