<?xml version="1.0" encoding="UTF-8" standalone="no"?>
<!-- Created with Inkscape (http://www.inkscape.org/) -->

<svg
   width="100mm"
   height="100mm"
   viewBox="0 0 100 100"
   version="1.1"
   id="svg1"
   xml:space="preserve"
   sodipodi:docname="n9W.svg"
   inkscape:version="1.4.3 (0d15f750, 2025-12-25)"
   xmlns:inkscape="http://www.inkscape.org/namespaces/inkscape"
   xmlns:sodipodi="http://sodipodi.sourceforge.net/DTD/sodipodi-0.dtd"
   xmlns="http://www.w3.org/2000/svg"
   xmlns:svg="http://www.w3.org/2000/svg"><sodipodi:namedview
     id="namedview1"
     pagecolor="#ffffff"
     bordercolor="#000000"
     borderopacity="0.25"
     inkscape:showpageshadow="2"
     inkscape:pageopacity="0.0"
     inkscape:pagecheckerboard="0"
     inkscape:deskcolor="#d1d1d1"
     inkscape:document-units="mm"
     inkscape:zoom="2.3283333"
     inkscape:cx="188.76163"
     inkscape:cy="188.76163"
     inkscape:window-width="1171"
     inkscape:window-height="1186"
     inkscape:window-x="0"
     inkscape:window-y="30"
     inkscape:window-maximized="0"
     inkscape:current-layer="svg1" /><defs
     id="defs1" /><g
     id="layer1"><path
       style="fill:#ffffff;stroke-width:0;stroke-dasharray:none"
       d="m 48.261261,83.499544 -1.6127,-0.370437 -1.430009,-0.59831 -1.430008,-0.59831 -1.792543,-1.171162 -1.792543,-1.171161 -1.117874,-1.298076 -1.117874,-1.298077 -1.719791,-0.0054 -1.719792,-0.0054 -1.834686,-0.26517 -1.834687,-0.26517 -2.255861,-0.919705 -2.255861,-0.919705 -1.465702,-0.969926 -1.465702,-0.969925 -1.809551,-1.742563 -1.80955,-1.742562 -1.190359,-1.790492 -1.190358,-1.790492 -0.792799,-2.310549 -0.792798,-2.31055 -0.147485,-2.563605 -0.147484,-2.563605 0.323789,-1.669728 0.323789,-1.669729 0.800626,-1.637746 0.800626,-1.637746 1.799544,-1.737314 1.799545,-1.737313 2.074565,-0.990565 2.074566,-0.990565 4.167188,-0.08939 4.167187,-0.08939 0,-0.254477 v -0.254477 l -0.370116,-0.714465 -0.370115,-0.714465 -1.38446,-1.719792 -1.38446,-1.719791 -0.381343,-0.897474 -0.381342,-0.897473 0.16096,-0.641316 0.16096,-0.641316 0.908127,-0.37944 0.908126,-0.379439 1.000686,0.0058 1.000685,0.0058 1.058334,0.508515 1.058333,0.508515 0.54698,0.481135 0.546981,0.481136 0.257172,0.459543 0.257173,0.459542 0.93335,-1.388858 0.933351,-1.388858 1.702079,-1.394498 1.70208,-1.394497 2.164677,-1.087165 2.164676,-1.087165 1.504142,-0.03188 1.504143,-0.03188 0.564514,0.747679 0.564515,0.747679 -0.0077,3.353362 -0.0077,3.353363 -0.622115,1.562854 -0.622114,1.562854 -1.174656,1.174655 -1.174655,1.174655 0.08471,0.05431 0.08471,0.05431 1.5875,0.476991 1.587499,0.476992 1.169841,0.766089 1.16984,0.766089 h 0.319466 0.319465 l 1.727884,-1.831649 1.727884,-1.831648 1.074658,-1.808917 1.074658,-1.808918 0.556391,-1.584955 0.556391,-1.584955 0.151468,-2.064556 0.151467,-2.064556 -1.355599,-1.941562 -1.355599,-1.941563 -0.0999,-0.888673 -0.0999,-0.888673 0.225392,-0.827948 0.225392,-0.827949 0.926859,-0.70695 0.926859,-0.706949 0.91744,-0.383331 0.91744,-0.383331 0.736102,9.89e-4 0.736102,9.89e-4 0.850605,0.518638 0.850605,0.518639 0.636888,1.26631 0.636887,1.26631 0.431671,1.499143 0.431671,1.499142 2.302,1.114233 2.302001,1.114232 1.996544,2.03205 1.996544,2.03205 0.998614,1.704575 0.998613,1.704574 0.816755,2.513542 0.816755,2.513542 0.138353,2.944556 0.138354,2.944556 -0.592229,1.950235 -0.592229,1.950236 -0.351874,0.680756 -0.351873,0.680755 0.87655,0.316965 0.876551,0.316965 1.086207,0.786844 1.086208,0.786845 0.715687,1.125851 0.715688,1.125852 0.479123,1.714065 0.479122,1.714066 -0.0046,2.122393 -0.0046,2.122392 -0.383156,1.808372 -0.383156,1.808373 -0.652113,1.424402 -0.652113,1.424403 -0.792243,1.151485 -0.792242,1.151484 -1.663711,0.886749 -1.663712,0.886749 -2.078867,-0.02246 -2.078867,-0.02246 -1.217904,0.538737 -1.217905,0.538737 -1.546569,-0.140238 -1.546569,-0.140238 -1.468499,1.539568 -1.468498,1.539567 -1.767865,0.923213 -1.767864,0.923212 -1.852083,0.567828 -1.852083,0.567828 -3.836459,0.118268 -3.836458,0.118268 z m 10.176885,-2.638192 1.420435,-0.396674 1.482972,-0.743276 1.482972,-0.743276 1.755229,-1.650113 1.755228,-1.650113 0.707849,-1.577297 0.707848,-1.577296 0.158943,-1.702078 0.158942,-1.702079 -0.55684,-1.833275 -0.55684,-1.833274 -0.756048,-1.042446 -0.756047,-1.042445 -1.079565,-0.746872 -1.079564,-0.746872 -0.804732,0.416143 -0.804731,0.416142 -0.343869,0.0041 -0.343868,0.0041 -0.382406,0.24194 -0.382406,0.241939 0.488383,0.906872 0.488383,0.906873 -0.502852,1.022584 -0.502852,1.022584 -0.852697,0.490537 -0.852697,0.490537 -1.397692,0.03272 -1.397692,0.03272 -1.499093,-0.75906 -1.499094,-0.759061 -1.939059,0.574731 -1.939059,0.574732 -1.144832,-8.38e-4 -1.144832,-8.38e-4 -0.805357,-0.805358 -0.805357,-0.805357 0.176002,-1.100654 0.176001,-1.100654 0.529309,-0.85644 0.529309,-0.85644 -0.523665,-0.280257 -0.523665,-0.280257 h -1.0135 l -1.013499,0 -1.054416,0.555655 -1.054415,0.555655 -0.882415,0.833407 -0.882415,0.833408 -0.652706,1.10507 -0.652706,1.105071 -0.152512,1.819162 -0.152512,1.819162 0.422623,1.453769 0.422622,1.45377 1.02326,1.575123 1.02326,1.575123 1.300084,1.269999 1.300084,1.269999 1.86967,0.907919 1.86967,0.907918 1.569913,0.397636 1.569913,0.397636 3.439584,-0.112687 3.439583,-0.112688 z m 13.368148,-6.287754 0.939194,-1.097237 0.410171,-1.410938 0.41017,-1.410937 0.258753,-1.364397 0.258753,-1.364397 -0.0031,-2.146699 -0.0031,-2.1467 -0.384928,-1.446459 -0.384927,-1.44646 -0.495266,-0.670207 -0.495266,-0.670207 -1.034895,-0.572502 -1.034896,-0.572503 -0.693526,-0.08609 -0.693527,-0.08609 -1.820015,0.995258 -1.820015,0.995258 1.852083,1.926831 1.852084,1.926832 0.661458,1.705252 0.661458,1.705253 -0.02266,2.910416 -0.02266,2.910417 -0.563248,1.256771 -0.563247,1.25677 h 0.896021 0.896022 z m -35.561789,-0.291826 -0.0034,-0.330729 -0.525753,-1.677219 -0.525753,-1.677219 v -1.55468 -1.554681 l 0.428433,-1.266017 0.428433,-1.266017 0.915064,-1.381309 0.915064,-1.381308 1.080503,-0.794611 1.080502,-0.79461 2.007771,-0.833727 2.007771,-0.833726 1.02626,-0.809886 1.026261,-0.809886 2.214885,-0.116252 2.214885,-0.116252 v -0.219377 -0.219378 l 0.705307,-0.705307 0.705307,-0.705306 0.873695,-0.365053 0.873695,-0.365054 1.331415,0 h 1.331415 V 54.079572 53.654976 L 55.673927,52.293635 54.991603,50.932293 54.387369,50.138543 53.783134,49.344794 52.88688,48.4677 51.990627,47.590606 50.056112,46.633477 48.121597,45.676348 45.95507,45.565213 43.788544,45.454078 42.155063,45.8801 l -1.633482,0.426022 -1.754263,0.787085 -1.754263,0.787084 -1.374755,0.889724 -1.374756,0.889723 -0.840391,0.329569 -0.840391,0.329569 -0.524229,-0.166384 -0.524229,-0.166384 -0.157156,-0.409542 -0.157156,-0.409542 0.227267,-0.406104 0.227267,-0.406104 1.542833,-0.827928 1.542833,-0.827928 0.09748,-0.309807 0.09748,-0.309807 -1.467336,-0.183332 -1.467336,-0.183331 -2.714926,0.121762 -2.714927,0.121763 -1.563252,0.622567 -1.563253,0.622567 -1.56546,1.44934 -1.56546,1.449339 -0.740749,1.47447 -0.740749,1.474469 -0.297726,1.402086 -0.297725,1.402085 0,1.532154 0,1.532153 0.529708,2.092844 0.529708,2.092844 0.850121,1.687784 0.850121,1.687784 1.835078,1.964983 1.835077,1.964983 1.159146,0.797513 1.159145,0.797513 1.853044,0.915798 1.853044,0.915799 1.511966,0.366566 1.511966,0.366566 1.256771,0.02204 1.256771,0.02204 z m 40.881538,-0.164288 1.058333,-0.483397 0.823159,-0.846362 0.823159,-0.846363 0.678699,-1.386084 0.678699,-1.386084 0.449953,-2.220609 0.449953,-2.220609 -0.170257,-1.831899 -0.170257,-1.831898 -0.556414,-1.293419 -0.556414,-1.293419 -1.010916,-0.913303 -1.010916,-0.913302 -0.966279,-0.181275 -0.966278,-0.181275 -1.752682,0.179568 -1.752681,0.179567 -0.123906,0.123906 -0.123905,0.123905 0.946943,0.987331 0.946944,0.98733 0.52462,1.058334 0.524621,1.058333 0.297181,1.402085 0.297182,1.402086 v 2.682052 2.682052 l -0.43041,1.736696 -0.43041,1.736695 -0.349781,0.688246 -0.349782,0.688246 0.303942,0.303942 0.303941,0.303941 0.277813,-0.0058 0.277812,-0.0058 z M 58.575992,65.38437 58.975314,64.943124 58.790262,64.657836 58.60521,64.372548 57.414585,63.716807 56.22396,63.061066 55.900656,62.420638 55.577351,61.78021 l 1.51393,-0.07537 1.513929,-0.07537 1.058333,-0.498339 1.058334,-0.498338 0.49582,-0.372771 0.495821,-0.372771 -0.932682,-0.442587 -0.932682,-0.442586 -1.28293,0.0058 -1.282931,0.0058 -0.789355,1.175974 -0.789356,1.175973 -0.236088,-0.236087 -0.236087,-0.236088 -0.03289,-2.2664 -0.03289,-2.266401 -0.621451,-0.0022 -0.621451,-0.0022 -0.767611,0.821731 -0.767612,0.821731 v 0.335629 0.335628 l 0.40432,1.145965 0.40432,1.145965 -0.131433,0.342509 -0.131433,0.342508 H 52.263514 51.593752 V 61.300544 60.953171 L 50.866148,60.27454 50.138543,59.595909 49.560625,59.298997 48.982707,59.002085 H 48.45337 47.924034 l -0.721767,0.274415 -0.721768,0.274416 0.319304,0.320897 0.319304,0.320897 1.220649,0.396875 1.220648,0.396875 0.28907,0.484736 0.289069,0.484735 -0.632069,0.441306 -0.632069,0.441306 -0.756993,0.755585 -0.756993,0.755586 v 0.615647 0.615648 l 0.496539,0.157595 0.49654,0.157596 1.818564,-0.707068 1.818565,-0.707067 0.987962,0.03176 0.987962,0.03176 1.495976,0.756453 1.495976,0.756452 0.609084,-0.116434 0.609083,-0.116433 z m 7.018822,-7.918028 1.168771,-0.448632 0.100211,-0.301216 0.10021,-0.301215 -1.13669,-0.537215 -1.13669,-0.537216 -1.504845,-0.301379 -1.504846,-0.30138 -0.876404,0.447763 -0.876404,0.447762 -0.730716,0.513842 -0.730715,0.513843 0.151018,0.244351 0.151017,0.244352 0.71199,0.02129 0.711989,0.02129 1.190625,0.341026 1.190625,0.341026 0.926041,0.02017 0.926042,0.02017 z m 5.159589,-1.799856 0.418515,-0.160599 -0.0039,-1.360755 -0.0039,-1.360755 -0.332959,-0.661459 -0.33296,-0.661458 -0.734671,-0.08499 -0.734671,-0.08499 -0.912844,0.996593 -0.912844,0.996594 v 0.319821 0.319821 l 1.256771,0.943357 1.256771,0.943357 0.309089,0.008 0.30909,0.008 z m 3.720702,-1.160377 0.690802,-0.262642 0.906097,-1.92017 0.906096,-1.92017 0.300766,-1.969656 0.300766,-1.969656 -0.170163,-1.504037 -0.170162,-1.504038 -0.495906,-1.734091 -0.495905,-1.734091 -1.012964,-1.927673 -1.012964,-1.927674 -1.590471,-1.706382 -1.590471,-1.706382 -1.562374,-1.013889 -1.562374,-1.013889 -0.567522,0 -0.567521,0 -0.28646,0.28646 -0.28646,0.28646 0.659703,2.293227 0.659704,2.293228 0.133576,3.975287 0.133575,3.975286 -0.434527,1.713255 -0.434528,1.713255 -0.905088,1.916485 -0.905089,1.916484 -0.851819,1.059976 -0.85182,1.059975 0.168234,0.168234 0.168234,0.168234 0.642258,-0.420823 0.642257,-0.420823 0.982249,-1.198706 0.982249,-1.198705 0.905187,-0.559437 0.905187,-0.559436 h 0.931766 0.931765 l 0.72971,0.302256 0.729709,0.302255 0.480204,0.81292 0.480203,0.812919 0.135609,1.689408 0.13561,1.689409 h 0.211135 0.211135 z m -14.190764,-1.590403 1.097069,-0.794712 0.8193,-1.123517 0.819299,-1.123517 0.624564,-1.223687 0.624563,-1.223686 0.541474,-2.06729 0.541475,-2.06729 -0.0053,-2.397565 -0.0053,-2.397565 -0.24062,-1.663918 -0.240619,-1.663918 -0.766583,-1.643373 -0.766583,-1.643374 -0.176297,1.878925 -0.176297,1.878925 -0.679747,2.082349 -0.679747,2.082349 -0.963984,1.594976 -0.963983,1.594976 -2.196965,2.204143 -2.196965,2.204143 0.173746,0.309398 0.173747,0.309399 1.005519,1.329481 1.00552,1.329481 0.579677,1.51479 0.579677,1.514789 h 0.188166 0.188166 z M 37.570836,42.753049 V 42.173052 L 36.546609,40.070381 35.522382,37.96771 34.864757,37.36192 34.207133,36.75613 33.243151,36.599697 32.279169,36.443265 v 0.276644 0.276644 l 1.477693,1.940787 1.477692,1.940787 0.474393,0.926042 0.474394,0.926041 0.197534,0.914216 0.197533,0.914215 0.496214,-0.612798 0.496214,-0.612798 z m 5.114665,0.746545 1.896793,-0.950408 1.140768,-0.932737 1.140768,-0.932737 0.622866,-0.986682 0.622865,-0.986683 0.419179,-1.411528 0.419179,-1.411528 v -2.053029 -2.05303 l -0.247143,-0.152742 -0.247143,-0.152743 -1.14192,0.454832 -1.141919,0.454832 -1.5875,0.93301 -1.5875,0.933011 -1.478326,1.463215 -1.478325,1.463215 -0.573722,1.533407 -0.573721,1.533408 0.15772,0.628405 0.157719,0.628405 1.210929,-1.502305 1.210928,-1.502305 0.790319,-0.926041 0.79032,-0.926042 0.554537,-0.321354 0.554538,-0.321353 0.14073,-0.0094 0.14073,-0.0094 0.05818,0.70294 0.05818,0.70294 -1.002976,1.34758 -1.002975,1.347581 -1.246452,2.020364 -1.246452,2.020364 v 0.162449 0.162448 h 0.28602 0.28602 z M 64.603647,28.93087 65.087501,28.492988 v -0.400911 -0.400912 l -0.835415,-1.812456 -0.835415,-1.812456 -0.637012,-0.15988 -0.637012,-0.15988 -0.776531,0.743964 -0.776531,0.743965 v 0.707867 0.707867 l 0.807072,1.028569 0.807072,1.028569 0.434122,0.330729 0.434123,0.330729 h 0.52391 0.523909 z"
       id="path1" /></g></svg>
