<?xml version="1.0" encoding="UTF-8"?>
<svg width="210mm" height="297mm" version="1.1" viewBox="0 0 210 297" xml:space="preserve" xmlns="http://www.w3.org/2000/svg"><path d="m104.9 135.46c-6.4521 0.75253-11.609 8.7602-7.8623 14.806 1.8747 3.0246 5.5321 3.1966 7.1945 6.6255 0.99651 2.0554 0.59289 8.9822 1.9386 10.047 1.3967 1.105 5.4672-4.9067 6.9313-5.3964 1.3132-0.43929 3.4564 0.93028 4.7625 1.2659 2.9029 0.74587 5.7587 0.69833 8.7312 0.69833-0.0378 1.0229-1.4396 4.8394-0.15658 5.1952 1.7704 0.4909 4.3784-2.2566 5.4369-3.3452 3.6597-3.7634 8.3296-6.1537 11.858-10.053 0.95649-1.057 3.2051-3.114 3.0159-4.6929-0.17195-1.4348-2.6544-2.137-3.7502-2.6444-4.3962-2.0357-8.7508-2.1871-13.494-2.1871 0-4.4466 2.1894-3.9927 4.2313-7.4133 1.7866-2.9928 2.3271-6.0345 4.6938-8.8513 1.4795-1.7608 6.7702-1.1207 4.946-4.8446-3.4207-6.9831-6.7416 2.473-11.934 1.6422-1.8072-0.28917-3.8338-2.28-5.641-2.9538-7.03-2.6214-17.049-2.7472-19.897 5.7521-0.68773 2.0525-0.80564 4.2105-1.0049 6.35m35.719-12.171c0.79375 3.5958-0.0767 2.975-3.7042 4.7625l-0.26458-0.26458v-0.52917l3.9688-3.9688m-11.642 3.4396v0.26458c-2.5857-0.0256-4.8338 0.0219-6.8404 1.9225-0.3654 0.34611-2.3104 2.4556-1.1695 2.9032 0.82653 0.32431 2.9273-2.3449 3.7772-2.7388 2.6647-1.2349 6.7828-0.90215 9.7889-1.8223 1.9185 3.0052-1.532 11.523-5.5562 12.435-1.2293-4.5143-9.4824-4.5247-13.229-5.0271 0.26894-0.96597 0.5236-1.9354 0.75766-2.9104 2.4009-10.002-6.4268 2.0897-9.7535 3.175 0.0537-13.5 13.111-12.626 22.225-8.2021m-14.023 3.9688c-0.40699 3.6132-1.6752 3.9688-5.0271 3.9688 0.80358-1.9109 3.3758-2.8032 5.0271-3.9688m12.435 9.2604c-5.3038 2.0784-8.5084 2.4598-13.022 6.2114-3.1649 2.6305-9.3718 0.68962-12.642-0.87223-1.202-0.57399-3.8139-1.8067-3.4059-3.4971 1.8408-7.6281 16.952-5.5145 22.191-4.7518 2.3954 0.34872 5.5536 0.63018 6.8792 2.9097m-20.9-0.62259c-4.1046 1.0423-1.8431 6.3393 1.8498 5.4741 4.3496-1.019 2.1883-6.4995-1.8498-5.4741m1.0543 1.6533c1.6363 0.0591 1.6838 2.0656-3e-3 2.066-1.8206 4.2e-4 -1.8307-2.1322 3e-3 -2.066m20.375 0.82134v3.7042c-2.2217-0.94989-5.1962-2.5672-7.6564-1.5123-1.8271 0.78341-1.4899 2.8628-2.1977 4.4021-0.70541 1.5342-2.5989 3.3429-3.9249 4.3693-5.4402 4.2111-16.119-1.3222-16.119-7.5237 4.6931 1.8736 9.5043 4.7634 14.817 3.4532 2.6043-0.64232 3.6728-3.0646 5.821-4.4165 2.3225-1.4616 6.5448-2.116 9.2602-2.4762m-2.3812 4.7625-5.8208 1.5875 0.52916-2.6458c1.7507-0.22947 4.0262-0.41475 5.2917 1.0583m6.8792 0.79375c-1.9834 5.5908-1.0079 7.6035 1.5875 12.7-4.3972 2.1954-10.075 2.4254-14.817 1.3997-1.8392-0.39785-4.2284-2.0633-6.0747-1.9014-2.1114 0.18521-3.9336 3.7246-5.8315 4.735 0-3.5528-0.71967-6.0125-2.1167-9.2604 1.9672 0.30632 5.1963 2.4628 7.0862 1.8576 2.0056-0.64223 3.8375-3.7473 5.6158-5.0149 4.3191-3.0787 9.2761-4.5131 14.55-4.5156m12.435 3.4396c-0.66409 1.517-1.7844 2.7798-2.9311 3.9638-1.2556 1.2965-3.8009 4.0851-5.7995 3.9713-4.0335-0.22978-4.2087-8.336-1.9519-10.448 1.4936-1.398 4.5348-0.16185 6.1845 0.4014 1.5707 0.53629 3.0816 1.2492 4.4979 2.1117m-7.6521-0.74341c-1.7107 0.15512-1.1706 2.6598 0.43817 2.4443 1.5758-0.21106 1.0751-2.5815-0.43817-2.4443m-5.3125 12.65-3.9688 3.7042c0.16805-2.7775 1.2806-3.4023 3.9688-3.7042z" fill="#5b5c5d"/></svg>
